<svg xmlns="http://www.w3.org/2000/svg" xmlns:xlink="http://www.w3.org/1999/xlink" width="1080" zoomAndPan="magnify" viewBox="0 0 810 809.999993" height="1080" preserveAspectRatio="xMidYMid meet" version="1.0"><defs><clipPath id="e693d72514"><path d="M 49 80.433594 L 762 80.433594 L 762 729.933594 L 49 729.933594 Z M 49 80.433594 " clip-rule="nonzero"/></clipPath></defs><g clip-path="url(#e693d72514)"><path fill="#43b0f1" d="M 745.574219 341.246094 C 745.441406 340.9375 745.222656 340.679688 744.914062 340.511719 C 728.996094 331.523438 712.117188 326.960938 694.742188 326.960938 C 671.902344 326.960938 648.921875 335.007812 626.457031 350.863281 C 624.628906 352.144531 622.5 352.824219 620.28125 352.824219 C 616.789062 352.824219 613.519531 351.128906 611.515625 348.285156 C 608.109375 343.457031 609.257812 336.761719 614.101562 333.347656 C 641.015625 314.347656 665.859375 305.113281 690.042969 305.113281 C 701.859375 305.113281 713.871094 307.316406 726.792969 311.871094 C 727.40625 312.085938 728.089844 311.886719 728.488281 311.378906 C 728.910156 310.863281 738.574219 298.269531 733.367188 267.625 C 731.0625 256.617188 726.832031 247.628906 720.847656 240.992188 C 708.789062 225.6875 696.554688 222.472656 688.414062 222.472656 C 683.359375 222.472656 680.164062 223.734375 680.023438 223.785156 C 679.726562 223.902344 679.476562 224.109375 679.308594 224.390625 C 667.605469 242.789062 654.027344 255.144531 629.21875 269.992188 C 627.546875 270.984375 625.652344 271.507812 623.722656 271.507812 C 619.964844 271.507812 616.449219 269.511719 614.519531 266.292969 C 611.484375 261.222656 613.144531 254.628906 618.210938 251.59375 C 648.15625 233.675781 660.0625 221.890625 667.269531 202.972656 C 670.90625 189.621094 666.421875 171.613281 656.863281 161.148438 L 654.949219 158.800781 C 644.082031 145.425781 623.886719 120.53125 572.824219 107.453125 C 565.738281 105.199219 558.5 104.054688 551.308594 104.054688 C 530.503906 104.054688 516.929688 113.421875 516.363281 113.816406 C 515.804688 114.207031 515.574219 114.921875 515.789062 115.5625 C 517.816406 121.515625 523.988281 139.628906 517.703125 159.90625 C 516.3125 164.421875 512.1875 167.449219 507.46875 167.449219 C 506.394531 167.449219 505.324219 167.296875 504.285156 166.972656 C 498.652344 165.21875 495.480469 159.207031 497.234375 153.5625 C 501.398438 140.128906 500.507812 128.265625 494.515625 117.308594 C 486.683594 102.972656 475.824219 93.320312 461.382812 87.816406 C 447.597656 81.949219 425.75 80.648438 416.9375 80.359375 C 360.167969 80.667969 319.695312 84.324219 268.472656 102.648438 C 261.914062 104.785156 256.800781 109.082031 254.066406 114.730469 C 250.839844 121.421875 250.914062 129.761719 254.296875 138.847656 C 254.339844 138.957031 254.457031 139.324219 254.664062 139.914062 C 258.628906 151.511719 262.503906 161.917969 266.1875 170.855469 C 267.277344 173.5 267.277344 176.410156 266.179688 179.054688 C 265.082031 181.691406 263.019531 183.753906 260.375 184.847656 C 259.0625 185.382812 257.691406 185.65625 256.292969 185.65625 C 251.96875 185.65625 248.078125 183.046875 246.375 179.019531 C 243.304688 171.6875 233.730469 147.703125 233.644531 147.484375 C 233.46875 147.011719 229.03125 135.886719 214.746094 135.886719 C 204.015625 135.886719 190.703125 142.273438 175.207031 154.859375 C 154.597656 170.824219 144.078125 185.289062 143.929688 197.835938 C 143.828125 206.683594 149.109375 211.070312 149.480469 211.355469 C 153.730469 214.066406 176.828125 231.675781 186.480469 242.425781 C 190.519531 246.914062 190.386719 253.589844 186.179688 257.613281 C 184.175781 259.527344 181.542969 260.582031 178.773438 260.582031 C 175.820312 260.582031 173.070312 259.402344 171.03125 257.273438 C 147.070312 232.246094 127.425781 220.066406 110.964844 220.066406 C 108.652344 220.066406 106.382812 220.316406 104.214844 220.808594 C 97.828125 222.277344 87.46875 229.636719 81.234375 239.332031 C 59.257812 267.890625 52.082031 290.296875 50.054688 328.640625 C 48.832031 351.59375 55.027344 373.992188 61.984375 383.722656 C 71.761719 397.398438 81.648438 405.144531 85.398438 407.855469 C 85.398438 407.855469 88.414062 409.769531 89.5625 408.871094 C 99.347656 401.1875 110.554688 397.148438 124.308594 397.148438 C 132.539062 397.148438 141.84375 398.535156 151.96875 401.273438 C 154.652344 402.003906 156.890625 403.757812 158.269531 406.21875 C 159.683594 408.738281 160.03125 411.78125 159.210938 414.558594 C 157.886719 419.097656 153.664062 422.265625 148.925781 422.265625 C 147.910156 422.265625 146.898438 422.113281 145.921875 421.832031 C 138.847656 419.769531 132.246094 418.890625 126.304688 418.714844 C 120.457031 418.558594 109.785156 419.113281 104.953125 424.574219 C 104.734375 424.824219 104.535156 425.074219 104.460938 425.390625 C 104.394531 425.691406 103.25 451.777344 140.378906 465.082031 C 171.5625 476.253906 187.769531 476.621094 255.535156 476.621094 C 265.527344 476.621094 276.519531 476.515625 290.113281 476.289062 C 293.539062 476.191406 298.394531 474.507812 301.488281 470.917969 C 303.847656 468.191406 304.855469 464.773438 304.40625 461.199219 C 304.371094 455.445312 305.261719 450.191406 307.234375 444.664062 C 315.355469 421.914062 331.707031 407.058594 360.257812 396.472656 C 361.464844 396.023438 362.710938 395.792969 363.984375 395.792969 C 368.441406 395.792969 372.472656 398.609375 374.027344 402.792969 C 375.023438 405.476562 374.917969 408.386719 373.71875 410.984375 C 372.523438 413.59375 370.394531 415.570312 367.710938 416.570312 C 345.882812 424.667969 332.433594 436.238281 327.734375 450.949219 C 319.8125 475.78125 338.144531 503.042969 338.367188 503.261719 C 392.925781 556.734375 498.929688 558.257812 504.257812 543.417969 C 508.746094 532.402344 511.832031 514.917969 501.007812 494.148438 C 484.054688 461.625 426.539062 459.609375 425.957031 459.578125 C 420.054688 459.417969 415.375 454.472656 415.546875 448.585938 C 415.699219 442.839844 420.519531 438.160156 426.515625 438.160156 C 429.398438 438.242188 497.183594 440.464844 520.003906 484.246094 C 532.394531 508.007812 530.648438 529.15625 526.996094 542.75 C 526.117188 546.394531 526.78125 550.082031 528.761719 552.605469 C 530.03125 554.199219 532.394531 556.101562 536.597656 556.101562 C 536.597656 556.101562 574.144531 556.34375 604.824219 549.960938 C 608.972656 549.109375 612.929688 552.171875 613.578125 556.335938 C 614.226562 560.511719 611.359375 564.433594 607.1875 565.082031 C 562.164062 572.125 522.683594 575.648438 488.417969 575.648438 C 447.007812 575.648438 413.195312 570.496094 386.347656 560.1875 C 386.804688 579.117188 393.234375 595.621094 404.929688 609.128906 C 405.003906 609.238281 405.070312 609.320312 405.136719 609.421875 C 409.03125 613.527344 414.875 619.332031 420.210938 624.195312 C 424.292969 627.914062 443.605469 640.21875 448.628906 643.257812 C 458.324219 648.914062 502.414062 676.042969 506.652344 678.769531 C 526.058594 691.273438 531.808594 704.847656 532.410156 705.65625 C 534.480469 708.398438 535.550781 716.53125 535.550781 716.53125 C 537.304688 723.824219 543.882812 729.25 551.722656 729.226562 C 560.882812 729.203125 568.300781 721.753906 568.269531 712.589844 C 568.269531 712.589844 568.527344 693.957031 561.265625 681.1875 C 560.101562 678.820312 544.8125 653.769531 527.164062 640.160156 C 521.808594 636.027344 509.171875 626.789062 509.171875 626.789062 L 509.097656 626.75 C 507.660156 625.773438 507.210938 623.839844 508.132812 622.347656 C 509.070312 620.828125 511.066406 620.339844 512.605469 621.277344 C 512.605469 621.277344 549.835938 647.425781 573.179688 640.921875 C 607.484375 631.363281 652.386719 608.804688 652.386719 558.039062 C 652.386719 550.492188 651.632812 543.398438 650.203125 536.714844 C 654.964844 534.179688 659.695312 531.3125 664.417969 528.019531 C 669.957031 523.585938 671.609375 518.089844 672.011719 514.257812 C 672.589844 508.773438 671.003906 502.96875 667.871094 499.136719 L 645.265625 470.027344 L 645.003906 469.738281 C 640.292969 463.757812 634.132812 462.503906 629.785156 462.503906 C 626.082031 462.503906 623.179688 463.394531 621.625 463.984375 C 613.679688 467.992188 605.308594 471.277344 596.785156 473.746094 C 591.171875 475.359375 585.105469 471.949219 583.515625 466.421875 C 582.726562 463.675781 583.042969 460.777344 584.421875 458.273438 C 585.808594 455.769531 588.078125 453.957031 590.832031 453.167969 C 610.285156 447.546875 645.378906 432.027344 662.015625 391.261719 C 663.65625 387.210938 667.554688 384.59375 671.945312 384.59375 C 673.332031 384.59375 674.6875 384.859375 675.976562 385.390625 C 681.453125 387.613281 684.097656 393.886719 681.855469 399.359375 C 676.523438 412.4375 669.214844 424.277344 660.003906 434.753906 C 655.804688 441.535156 656.347656 448.554688 661.726562 456.285156 L 676.492188 475.472656 C 676.691406 475.742188 676.964844 475.933594 677.28125 476.015625 C 677.523438 476.089844 683.292969 477.71875 691.53125 477.71875 C 702.628906 477.71875 718.328125 474.703125 730.082031 460.308594 C 758.800781 425.964844 760.203125 396.25 761.210938 374.550781 C 761.320312 372.390625 761.410156 370.292969 761.535156 368.050781 C 760.269531 352.160156 750.113281 344.089844 745.574219 341.246094 Z M 305.636719 327.011719 C 291.820312 340.664062 276.578125 350.714844 260.34375 356.898438 C 260.160156 356.964844 260.007812 357.066406 259.875 357.199219 C 252.402344 361.257812 249.792969 366.859375 251.1875 375.890625 L 257.339844 410.914062 C 257.890625 413.71875 257.316406 416.578125 255.71875 418.949219 C 254.121094 421.324219 251.703125 422.945312 248.886719 423.488281 C 243.105469 424.632812 237.421875 420.734375 236.304688 415.046875 L 229.597656 377.246094 C 227.550781 369.304688 219.925781 365.105469 214.980469 364.546875 C 214.78125 364.433594 214.546875 364.367188 214.296875 364.359375 C 161.03125 362.4375 118.398438 328.027344 117.972656 327.683594 C 115.761719 325.863281 114.382812 323.300781 114.097656 320.453125 C 113.816406 317.609375 114.664062 314.816406 116.46875 312.609375 C 118.511719 310.109375 121.539062 308.679688 124.765625 308.679688 C 127.21875 308.679688 129.628906 309.535156 131.539062 311.097656 C 133.152344 312.410156 171.582031 343.230469 217.707031 343.230469 C 244.925781 343.230469 269.445312 332.640625 290.585938 311.773438 C 294.652344 307.753906 301.710938 307.789062 305.734375 311.871094 C 307.746094 313.90625 308.84375 316.609375 308.820312 319.46875 C 308.8125 322.320312 307.679688 325 305.636719 327.011719 Z M 319.761719 252.601562 C 286.273438 252.601562 262.320312 273.320312 261.3125 274.199219 C 259.351562 275.914062 256.847656 276.867188 254.246094 276.867188 C 251.15625 276.867188 248.21875 275.539062 246.191406 273.226562 C 244.304688 271.074219 243.363281 268.320312 243.554688 265.460938 C 243.730469 262.609375 245.019531 259.992188 247.171875 258.105469 C 261.839844 245.210938 288.691406 231.441406 320.035156 231.441406 C 342.617188 231.441406 364.214844 238.601562 384.222656 252.734375 C 386.558594 254.386719 388.113281 256.847656 388.601562 259.667969 C 389.085938 262.484375 388.445312 265.328125 386.796875 267.664062 C 384.792969 270.507812 381.511719 272.203125 378.035156 272.203125 C 375.816406 272.203125 373.6875 271.523438 371.867188 270.234375 C 355.296875 258.535156 337.761719 252.601562 319.761719 252.601562 Z M 567.71875 404.488281 C 565.875 406.683594 563.289062 408.023438 560.445312 408.273438 C 514.300781 412.320312 479.921875 402.152344 459.011719 378.214844 C 455.746094 374.484375 452.753906 370.308594 450.132812 365.796875 C 450.074219 365.6875 449.984375 365.585938 449.902344 365.488281 C 447.125 362.695312 443.324219 361.199219 438.59375 361.03125 C 436.921875 360.972656 435.152344 361.074219 433.183594 361.355469 C 432.972656 361.3125 419.628906 364.242188 406.527344 363.808594 C 376.996094 362.835938 358.007812 348.992188 357.222656 348.410156 C 352.460938 344.902344 351.453125 338.183594 354.957031 333.421875 C 357.050781 330.570312 360.425781 328.941406 363.960938 329.074219 C 366.105469 329.148438 368.15625 329.855469 369.902344 331.132812 C 370.496094 331.558594 384.761719 341.027344 407.101562 342.351562 C 417.902344 342.992188 428.5 339.582031 429.789062 339.035156 C 438.046875 335.566406 437.738281 326.410156 437.332031 322.863281 C 435.578125 302.152344 439.25 285.632812 439.398438 284.933594 C 440.671875 279.265625 446.484375 275.546875 452.210938 276.84375 C 457.949219 278.148438 461.589844 283.878906 460.300781 289.632812 C 460.195312 290.097656 450.441406 335.964844 475.226562 364.214844 C 491.414062 382.65625 519.628906 390.355469 558.582031 386.929688 C 564.59375 386.429688 569.6875 390.847656 570.1875 396.671875 C 570.429688 399.515625 569.558594 402.292969 567.71875 404.488281 Z M 559.304688 238.640625 C 540.117188 257.039062 530.664062 286.304688 535.246094 313.210938 C 536.144531 318.449219 532.601562 323.445312 527.371094 324.335938 C 526.824219 324.433594 526.273438 324.476562 525.726562 324.476562 C 521.019531 324.476562 516.804688 321.140625 516.238281 316.453125 C 512.714844 287.703125 522.023438 261.164062 522.132812 260.890625 C 522.75 259.382812 522.832031 258.070312 522.359375 256.992188 C 521.800781 255.667969 520.519531 254.9375 519.523438 254.546875 C 490.757812 251.363281 438.953125 240.414062 414.898438 202.867188 C 411.191406 197.410156 401.496094 200.207031 385.792969 200.1875 C 315.253906 200.066406 305.253906 154.761719 304.863281 152.832031 C 304.355469 150.3125 304.855469 147.734375 306.277344 145.589844 C 307.699219 143.4375 309.867188 141.972656 312.394531 141.464844 C 313.027344 141.332031 313.675781 141.265625 314.316406 141.265625 C 318.832031 141.265625 322.796875 144.476562 323.746094 148.898438 C 324.050781 150.195312 331.785156 180.875 385.957031 180.875 C 388.636719 180.875 391.429688 180.800781 394.253906 180.644531 C 400.476562 179.886719 403.964844 176.609375 404.871094 170.640625 C 405.761719 149.765625 421.484375 134.25 430.636719 128.378906 C 432.191406 127.375 433.988281 126.84375 435.832031 126.84375 C 439.136719 126.84375 442.175781 128.503906 443.964844 131.28125 C 445.355469 133.445312 445.820312 136.023438 445.269531 138.539062 C 444.714844 141.058594 443.21875 143.210938 441.0625 144.601562 C 440.066406 145.257812 416.710938 160.871094 426.605469 183.917969 C 444.421875 225.429688 505.015625 234.242188 530.238281 236.097656 C 533.421875 235.847656 537.046875 233.945312 540.15625 230.882812 C 542.285156 228.429688 544.132812 226.453125 545.96875 224.699219 C 570.480469 201.203125 571.949219 178.199219 572 177.234375 C 572.273438 171.929688 576.804688 167.804688 582.070312 168.078125 C 587.339844 168.3125 591.464844 172.785156 591.265625 178.046875 C 591.222656 179.328125 589.734375 209.476562 559.304688 238.640625 Z M 559.304688 238.640625 " fill-opacity="1" fill-rule="nonzero"/></g></svg>