<svg xmlns="http://www.w3.org/2000/svg" xmlns:xlink="http://www.w3.org/1999/xlink" width="40" zoomAndPan="magnify" viewBox="0 0 30 30.000001" height="40" preserveAspectRatio="xMidYMid meet" version="1.0"><defs><clipPath id="580684aa8e"><path d="M 4.953125 1.121094 L 25.277344 1.121094 L 25.277344 27.976562 L 4.953125 27.976562 Z M 4.953125 1.121094 " clip-rule="nonzero"/></clipPath><clipPath id="63a7736dbd"><path d="M 0.484375 6 L 29.515625 6 L 29.515625 29.03125 L 0.484375 29.03125 Z M 0.484375 6 " clip-rule="nonzero"/></clipPath></defs><g clip-path="url(#580684aa8e)"><path fill="#ffffff" d="M 6.75 27.886719 C 7.332031 27.886719 8 27.636719 8.691406 27.15625 L 23.554688 16.988281 C 24.515625 16.339844 25.039062 15.441406 25.039062 14.503906 C 25.039062 13.5625 24.515625 12.667969 23.554688 12.019531 L 8.710938 1.851562 C 8.023438 1.371094 7.332031 1.140625 6.75 1.140625 C 5.640625 1.140625 4.953125 2.039062 4.953125 3.523438 L 4.953125 25.507812 C 4.953125 26.988281 5.640625 27.886719 6.75 27.886719 Z M 6.75 27.886719 " fill-opacity="1" fill-rule="nonzero"/></g><g clip-path="url(#63a7736dbd)"><path stroke-linecap="butt" transform="matrix(0.688321, 0.230237, -0.230237, 0.688321, 3.779838, 14.137337)" fill="none" stroke-linejoin="miter" d="M 0.000913596 0.997604 L 33.268367 0.998693 " stroke="#121212" stroke-width="2" stroke-opacity="1" stroke-miterlimit="4"/></g></svg>