<svg xmlns="http://www.w3.org/2000/svg" xmlns:xlink="http://www.w3.org/1999/xlink" width="1080" zoomAndPan="magnify" viewBox="0 0 810 809.999993" height="1080" preserveAspectRatio="xMidYMid meet" version="1.0"><defs><clipPath id="de25ab18b9"><path d="M 95 121.882812 L 716.882812 121.882812 L 716.882812 688 L 95 688 Z M 95 121.882812 " clip-rule="nonzero"/></clipPath></defs><g clip-path="url(#de25ab18b9)"><path fill="#ffffff" d="M 702.082031 349.386719 C 701.96875 349.117188 701.777344 348.894531 701.503906 348.746094 C 687.621094 340.90625 672.898438 336.925781 657.742188 336.925781 C 637.820312 336.925781 617.773438 343.945312 598.175781 357.777344 C 596.582031 358.894531 594.726562 359.484375 592.792969 359.484375 C 589.746094 359.484375 586.890625 358.007812 585.144531 355.527344 C 582.171875 351.316406 583.175781 345.472656 587.398438 342.5 C 610.878906 325.921875 632.550781 317.871094 653.644531 317.871094 C 663.953125 317.871094 674.429688 319.792969 685.703125 323.761719 C 686.234375 323.949219 686.832031 323.777344 687.179688 323.332031 C 687.546875 322.882812 695.976562 311.898438 691.433594 285.167969 C 689.421875 275.566406 685.734375 267.726562 680.515625 261.933594 C 669.992188 248.585938 659.324219 245.785156 652.222656 245.785156 C 647.8125 245.785156 645.023438 246.882812 644.902344 246.925781 C 644.644531 247.03125 644.425781 247.210938 644.277344 247.453125 C 634.074219 263.503906 622.226562 274.28125 600.585938 287.230469 C 599.128906 288.097656 597.476562 288.554688 595.792969 288.554688 C 592.515625 288.554688 589.449219 286.8125 587.765625 284.003906 C 585.117188 279.582031 586.5625 273.832031 590.984375 271.183594 C 617.105469 255.550781 627.492188 245.277344 633.777344 228.769531 C 636.953125 217.125 633.039062 201.417969 624.703125 192.289062 L 623.03125 190.242188 C 613.550781 178.574219 595.933594 156.859375 551.394531 145.449219 C 545.210938 143.484375 538.898438 142.488281 532.628906 142.488281 C 514.476562 142.488281 502.636719 150.65625 502.144531 151.003906 C 501.65625 151.34375 501.457031 151.96875 501.640625 152.527344 C 503.410156 157.71875 508.796875 173.515625 503.3125 191.203125 C 502.097656 195.144531 498.5 197.785156 494.386719 197.785156 C 493.449219 197.785156 492.515625 197.652344 491.609375 197.367188 C 486.691406 195.839844 483.929688 190.59375 485.457031 185.671875 C 489.089844 173.953125 488.3125 163.605469 483.085938 154.050781 C 476.253906 141.542969 466.78125 133.121094 454.183594 128.320312 C 442.160156 123.207031 423.101562 122.070312 415.417969 121.816406 C 365.894531 122.085938 330.59375 125.277344 285.910156 141.257812 C 280.191406 143.125 275.730469 146.871094 273.347656 151.800781 C 270.53125 157.636719 270.59375 164.910156 273.546875 172.835938 C 273.582031 172.933594 273.6875 173.253906 273.867188 173.769531 C 277.324219 183.882812 280.703125 192.960938 283.917969 200.753906 C 284.871094 203.0625 284.871094 205.601562 283.910156 207.910156 C 282.953125 210.210938 281.15625 212.007812 278.847656 212.960938 C 277.703125 213.429688 276.507812 213.667969 275.285156 213.667969 C 271.515625 213.667969 268.121094 211.390625 266.636719 207.875 C 263.957031 201.480469 255.605469 180.5625 255.53125 180.367188 C 255.375 179.957031 251.507812 170.253906 239.042969 170.253906 C 229.6875 170.253906 218.074219 175.824219 204.554688 186.800781 C 186.578125 200.730469 177.402344 213.347656 177.273438 224.292969 C 177.183594 232.011719 181.792969 235.835938 182.113281 236.085938 C 185.820312 238.449219 205.96875 253.8125 214.390625 263.1875 C 217.910156 267.101562 217.796875 272.925781 214.125 276.433594 C 212.378906 278.105469 210.082031 279.023438 207.667969 279.023438 C 205.089844 279.023438 202.691406 277.996094 200.914062 276.136719 C 180.011719 254.304688 162.875 243.683594 148.519531 243.683594 C 146.5 243.683594 144.519531 243.898438 142.632812 244.332031 C 137.058594 245.609375 128.023438 252.03125 122.585938 260.488281 C 103.414062 285.398438 97.152344 304.945312 95.386719 338.390625 C 94.320312 358.410156 99.722656 377.949219 105.792969 386.441406 C 114.320312 398.367188 122.945312 405.125 126.214844 407.488281 C 126.214844 407.488281 128.84375 409.160156 129.847656 408.375 C 138.382812 401.671875 148.160156 398.152344 160.160156 398.152344 C 167.335938 398.152344 175.453125 399.359375 184.285156 401.75 C 186.625 402.386719 188.578125 403.914062 189.78125 406.0625 C 191.015625 408.261719 191.316406 410.914062 190.601562 413.335938 C 189.445312 417.296875 185.765625 420.058594 181.632812 420.058594 C 180.746094 420.058594 179.863281 419.925781 179.007812 419.679688 C 172.839844 417.882812 167.082031 417.117188 161.898438 416.960938 C 156.796875 416.828125 147.492188 417.308594 143.273438 422.070312 C 143.082031 422.289062 142.90625 422.507812 142.84375 422.785156 C 142.785156 423.050781 141.789062 445.800781 174.175781 457.40625 C 201.375 467.152344 215.515625 467.472656 274.625 467.472656 C 283.339844 467.472656 292.929688 467.382812 304.785156 467.183594 C 307.777344 467.101562 312.011719 465.628906 314.710938 462.5 C 316.765625 460.121094 317.648438 457.136719 317.253906 454.019531 C 317.222656 449 318 444.417969 319.722656 439.597656 C 326.804688 419.75 341.066406 406.792969 365.972656 397.558594 C 367.027344 397.167969 368.113281 396.96875 369.226562 396.96875 C 373.113281 396.96875 376.628906 399.421875 377.984375 403.074219 C 378.851562 405.414062 378.761719 407.953125 377.714844 410.21875 C 376.675781 412.496094 374.816406 414.21875 372.476562 415.09375 C 353.433594 422.15625 341.703125 432.246094 337.605469 445.082031 C 330.695312 466.742188 346.683594 490.519531 346.878906 490.714844 C 394.46875 537.355469 486.9375 538.683594 491.582031 525.742188 C 495.5 516.132812 498.191406 500.882812 488.75 482.761719 C 473.960938 454.394531 423.789062 452.632812 423.285156 452.605469 C 418.136719 452.464844 414.054688 448.152344 414.203125 443.019531 C 414.335938 438.003906 418.539062 433.921875 423.773438 433.921875 C 426.285156 433.996094 485.414062 435.933594 505.320312 474.125 C 516.128906 494.851562 514.605469 513.296875 511.417969 525.15625 C 510.652344 528.335938 511.230469 531.550781 512.960938 533.753906 C 514.066406 535.144531 516.128906 536.800781 519.792969 536.800781 C 519.792969 536.800781 552.542969 537.015625 579.308594 531.449219 C 582.925781 530.703125 586.378906 533.375 586.941406 537.007812 C 587.507812 540.652344 585.007812 544.070312 581.371094 544.636719 C 542.09375 550.78125 507.65625 553.851562 477.765625 553.851562 C 441.644531 553.851562 412.152344 549.359375 388.730469 540.367188 C 389.128906 556.878906 394.742188 571.277344 404.941406 583.058594 C 405.003906 583.152344 405.0625 583.226562 405.121094 583.316406 C 408.519531 586.894531 413.617188 591.960938 418.269531 596.199219 C 421.832031 599.445312 438.675781 610.179688 443.058594 612.828125 C 451.515625 617.765625 489.976562 641.429688 493.671875 643.804688 C 510.601562 654.714844 515.613281 666.550781 516.140625 667.257812 C 517.949219 669.648438 518.878906 676.746094 518.878906 676.746094 C 520.410156 683.109375 526.148438 687.839844 532.988281 687.820312 C 540.976562 687.800781 547.449219 681.300781 547.421875 673.308594 C 547.421875 673.308594 547.648438 657.054688 541.308594 645.914062 C 540.292969 643.851562 526.957031 622 511.566406 610.128906 C 506.894531 606.523438 495.871094 598.464844 495.871094 598.464844 L 495.804688 598.429688 C 494.554688 597.578125 494.160156 595.890625 494.964844 594.585938 C 495.78125 593.265625 497.523438 592.839844 498.867188 593.65625 C 498.867188 593.65625 531.34375 616.464844 551.703125 610.789062 C 581.628906 602.453125 620.792969 582.773438 620.792969 538.492188 C 620.792969 531.910156 620.136719 525.722656 618.890625 519.890625 C 623.042969 517.679688 627.167969 515.179688 631.289062 512.308594 C 636.121094 508.4375 637.5625 503.644531 637.914062 500.300781 C 638.417969 495.519531 637.035156 490.457031 634.304688 487.113281 L 614.585938 461.71875 L 614.355469 461.46875 C 610.246094 456.25 604.875 455.160156 601.082031 455.160156 C 597.847656 455.160156 595.316406 455.9375 593.960938 456.449219 C 587.03125 459.945312 579.730469 462.8125 572.296875 464.964844 C 567.398438 466.375 562.109375 463.398438 560.71875 458.578125 C 560.03125 456.179688 560.308594 453.65625 561.511719 451.46875 C 562.71875 449.285156 564.699219 447.703125 567.101562 447.015625 C 584.070312 442.113281 614.683594 428.578125 629.195312 393.015625 C 630.628906 389.480469 634.027344 387.199219 637.859375 387.199219 C 639.066406 387.199219 640.25 387.429688 641.375 387.894531 C 646.148438 389.832031 648.457031 395.304688 646.503906 400.078125 C 641.847656 411.488281 635.472656 421.816406 627.441406 430.953125 C 623.777344 436.867188 624.25 442.992188 628.945312 449.734375 L 641.824219 466.46875 C 641.996094 466.707031 642.234375 466.875 642.511719 466.945312 C 642.722656 467.011719 647.753906 468.429688 654.941406 468.429688 C 664.621094 468.429688 678.316406 465.800781 688.566406 453.242188 C 713.621094 423.285156 714.839844 397.367188 715.722656 378.4375 C 715.820312 376.554688 715.894531 374.722656 716.003906 372.769531 C 714.898438 358.90625 706.042969 351.867188 702.082031 349.386719 Z M 318.328125 336.972656 C 306.277344 348.878906 292.980469 357.648438 278.820312 363.039062 C 278.660156 363.097656 278.527344 363.1875 278.410156 363.304688 C 271.894531 366.84375 269.617188 371.730469 270.832031 379.609375 L 276.199219 410.15625 C 276.679688 412.605469 276.179688 415.097656 274.785156 417.167969 C 273.390625 419.238281 271.28125 420.652344 268.828125 421.128906 C 263.78125 422.125 258.828125 418.722656 257.851562 413.761719 L 252 380.789062 C 250.214844 373.863281 243.5625 370.199219 239.25 369.710938 C 239.078125 369.613281 238.871094 369.554688 238.652344 369.550781 C 192.191406 367.871094 155.003906 337.859375 154.632812 337.554688 C 152.703125 335.96875 151.5 333.730469 151.25 331.25 C 151.007812 328.769531 151.746094 326.335938 153.320312 324.40625 C 155.101562 322.226562 157.742188 320.980469 160.558594 320.980469 C 162.695312 320.980469 164.796875 321.726562 166.464844 323.089844 C 167.871094 324.234375 201.394531 351.117188 241.628906 351.117188 C 265.371094 351.117188 286.757812 341.882812 305.199219 323.679688 C 308.746094 320.171875 314.902344 320.203125 318.414062 323.761719 C 320.167969 325.539062 321.125 327.894531 321.105469 330.390625 C 321.097656 332.875 320.109375 335.214844 318.328125 336.972656 Z M 330.648438 272.0625 C 301.4375 272.0625 280.542969 290.136719 279.664062 290.902344 C 277.953125 292.398438 275.769531 293.226562 273.5 293.226562 C 270.808594 293.226562 268.242188 292.070312 266.476562 290.054688 C 264.828125 288.175781 264.007812 285.773438 264.175781 283.277344 C 264.328125 280.792969 265.453125 278.511719 267.328125 276.863281 C 280.125 265.617188 303.546875 253.605469 330.886719 253.605469 C 350.585938 253.605469 369.425781 259.851562 386.878906 272.179688 C 388.917969 273.621094 390.273438 275.765625 390.699219 278.226562 C 391.121094 280.683594 390.5625 283.164062 389.125 285.199219 C 387.375 287.679688 384.515625 289.160156 381.480469 289.160156 C 379.546875 289.160156 377.6875 288.570312 376.101562 287.445312 C 361.648438 277.238281 346.351562 272.0625 330.648438 272.0625 Z M 546.941406 404.550781 C 545.332031 406.46875 543.078125 407.636719 540.597656 407.855469 C 500.34375 411.382812 470.355469 402.515625 452.113281 381.632812 C 449.269531 378.378906 446.660156 374.738281 444.371094 370.804688 C 444.320312 370.707031 444.242188 370.617188 444.171875 370.535156 C 441.75 368.097656 438.433594 366.792969 434.304688 366.644531 C 432.847656 366.59375 431.304688 366.683594 429.589844 366.925781 C 429.402344 366.890625 417.761719 369.445312 406.335938 369.066406 C 380.574219 368.21875 364.011719 356.144531 363.324219 355.636719 C 359.171875 352.574219 358.292969 346.714844 361.351562 342.5625 C 363.175781 340.074219 366.121094 338.65625 369.207031 338.769531 C 371.074219 338.835938 372.863281 339.453125 374.386719 340.5625 C 374.90625 340.9375 387.347656 349.195312 406.835938 350.351562 C 416.257812 350.910156 425.5 347.9375 426.625 347.460938 C 433.828125 344.433594 433.558594 336.445312 433.207031 333.351562 C 431.675781 315.285156 434.878906 300.875 435.007812 300.265625 C 436.117188 295.324219 441.1875 292.078125 446.183594 293.207031 C 451.191406 294.347656 454.363281 299.347656 453.238281 304.367188 C 453.148438 304.769531 444.640625 344.78125 466.261719 369.421875 C 480.382812 385.507812 504.992188 392.226562 538.972656 389.234375 C 544.214844 388.800781 548.65625 392.65625 549.09375 397.734375 C 549.304688 400.214844 548.546875 402.636719 546.941406 404.550781 Z M 539.601562 259.882812 C 522.863281 275.933594 514.617188 301.460938 518.617188 324.933594 C 519.398438 329.503906 516.308594 333.859375 511.746094 334.636719 C 511.269531 334.722656 510.789062 334.761719 510.3125 334.761719 C 506.207031 334.761719 502.527344 331.847656 502.035156 327.761719 C 498.960938 302.683594 507.078125 279.53125 507.175781 279.292969 C 507.714844 277.976562 507.785156 276.832031 507.375 275.894531 C 506.886719 274.738281 505.769531 274.101562 504.902344 273.761719 C 479.808594 270.984375 434.621094 261.433594 413.636719 228.679688 C 410.402344 223.917969 401.945312 226.359375 388.25 226.339844 C 326.714844 226.238281 317.996094 186.71875 317.652344 185.035156 C 317.210938 182.835938 317.648438 180.585938 318.886719 178.714844 C 320.128906 176.839844 322.019531 175.5625 324.222656 175.117188 C 324.773438 175 325.339844 174.945312 325.898438 174.945312 C 329.839844 174.945312 333.296875 177.746094 334.125 181.601562 C 334.390625 182.734375 341.136719 209.496094 388.390625 209.496094 C 390.730469 209.496094 393.164062 209.433594 395.628906 209.296875 C 401.058594 208.636719 404.097656 205.773438 404.890625 200.570312 C 405.667969 182.359375 419.382812 168.824219 427.363281 163.703125 C 428.71875 162.828125 430.289062 162.367188 431.894531 162.367188 C 434.78125 162.367188 437.429688 163.8125 438.992188 166.234375 C 440.207031 168.125 440.609375 170.375 440.128906 172.566406 C 439.648438 174.765625 438.34375 176.640625 436.457031 177.855469 C 435.589844 178.425781 415.21875 192.046875 423.847656 212.152344 C 439.390625 248.359375 492.246094 256.046875 514.246094 257.667969 C 517.023438 257.449219 520.183594 255.789062 522.898438 253.117188 C 524.753906 250.976562 526.367188 249.253906 527.96875 247.722656 C 549.351562 227.226562 550.628906 207.164062 550.675781 206.320312 C 550.914062 201.695312 554.863281 198.09375 559.460938 198.332031 C 564.054688 198.539062 567.65625 202.4375 567.480469 207.027344 C 567.441406 208.144531 566.144531 234.445312 539.601562 259.882812 Z M 539.601562 259.882812 " fill-opacity="1" fill-rule="nonzero"/></g></svg>