<svg xmlns="http://www.w3.org/2000/svg" xmlns:xlink="http://www.w3.org/1999/xlink" width="1080" zoomAndPan="magnify" viewBox="0 0 810 809.999993" height="1080" preserveAspectRatio="xMidYMid meet" version="1.0"><defs><g/><clipPath id="9fc1272839"><path d="M 226 145.328125 L 585 145.328125 L 585 472.328125 L 226 472.328125 Z M 226 145.328125 " clip-rule="nonzero"/></clipPath></defs><path stroke-linecap="butt" transform="matrix(0.75, -0.000000000000000558, 0.000000000000000558, 0.75, 87.576906, 84.452082)" fill="none" stroke-linejoin="miter" d="M 0.00162494 17.001391 L 846.460001 17.001391 " stroke="#ffffff" stroke-width="34" stroke-opacity="1" stroke-miterlimit="4"/><path stroke-linecap="butt" transform="matrix(0, 0.75, -0.75, 0, 722.615367, 90.509502)" fill="none" stroke-linejoin="miter" d="M -0.00225246 16.997574 L 846.461332 16.997574 " stroke="#ffffff" stroke-width="34" stroke-opacity="1" stroke-miterlimit="4"/><path stroke-linecap="butt" transform="matrix(0, 0.75, -0.75, 0, 112.878293, 84.915954)" fill="none" stroke-linejoin="miter" d="M -0.00252217 16.999183 L 846.461062 16.999183 " stroke="#ffffff" stroke-width="34" stroke-opacity="1" stroke-miterlimit="4"/><path stroke-linecap="butt" transform="matrix(0.75, 0, 0, 0.75, 87.576906, 700.047945)" fill="none" stroke-linejoin="miter" d="M 0.00162494 16.998574 L 846.460001 16.998574 " stroke="#ffffff" stroke-width="34" stroke-opacity="1" stroke-miterlimit="4"/><g clip-path="url(#9fc1272839)"><path fill="#ffffff" d="M 576.664062 276.792969 C 576.597656 276.636719 576.484375 276.503906 576.328125 276.417969 C 568.308594 271.890625 559.796875 269.589844 551.042969 269.589844 C 539.527344 269.589844 527.945312 273.644531 516.621094 281.636719 C 515.699219 282.285156 514.628906 282.625 513.507812 282.625 C 511.75 282.625 510.101562 281.769531 509.089844 280.335938 C 507.375 277.90625 507.953125 274.53125 510.394531 272.808594 C 523.960938 263.230469 536.484375 258.578125 548.671875 258.578125 C 554.628906 258.578125 560.683594 259.6875 567.195312 261.984375 C 567.503906 262.09375 567.851562 261.992188 568.050781 261.734375 C 568.261719 261.476562 573.136719 255.128906 570.507812 239.683594 C 569.347656 234.132812 567.214844 229.601562 564.199219 226.257812 C 558.121094 218.542969 551.953125 216.925781 547.851562 216.925781 C 545.304688 216.925781 543.691406 217.558594 543.621094 217.585938 C 543.472656 217.644531 543.347656 217.75 543.261719 217.890625 C 537.363281 227.164062 530.519531 233.390625 518.015625 240.875 C 517.171875 241.375 516.21875 241.640625 515.242188 241.640625 C 513.351562 241.640625 511.578125 240.632812 510.605469 239.011719 C 509.074219 236.457031 509.910156 233.132812 512.464844 231.601562 C 527.558594 222.570312 533.558594 216.632812 537.191406 207.09375 C 539.027344 200.363281 536.765625 191.289062 531.949219 186.015625 L 530.984375 184.828125 C 525.503906 178.089844 515.324219 165.539062 489.589844 158.949219 C 486.015625 157.8125 482.371094 157.234375 478.746094 157.234375 C 468.257812 157.234375 461.414062 161.957031 461.128906 162.15625 C 460.847656 162.355469 460.734375 162.714844 460.839844 163.035156 C 461.863281 166.039062 464.972656 175.167969 461.804688 185.386719 C 461.105469 187.664062 459.023438 189.191406 456.648438 189.191406 C 456.105469 189.191406 455.566406 189.113281 455.042969 188.949219 C 452.203125 188.0625 450.605469 185.035156 451.488281 182.1875 C 453.585938 175.417969 453.136719 169.441406 450.117188 163.917969 C 446.171875 156.691406 440.695312 151.824219 433.417969 149.050781 C 426.46875 146.09375 415.457031 145.4375 411.015625 145.292969 C 382.402344 145.449219 362 147.289062 336.183594 156.527344 C 332.875 157.605469 330.300781 159.769531 328.921875 162.617188 C 327.296875 165.988281 327.332031 170.195312 329.035156 174.773438 C 329.058594 174.828125 329.117188 175.015625 329.222656 175.3125 C 331.21875 181.15625 333.175781 186.402344 335.03125 190.90625 C 335.582031 192.238281 335.582031 193.707031 335.027344 195.039062 C 334.472656 196.367188 333.433594 197.410156 332.101562 197.957031 C 331.441406 198.230469 330.75 198.367188 330.042969 198.367188 C 327.863281 198.367188 325.902344 197.050781 325.042969 195.019531 C 323.496094 191.324219 318.671875 179.238281 318.625 179.125 C 318.539062 178.886719 316.300781 173.28125 309.101562 173.28125 C 303.695312 173.28125 296.984375 176.5 289.171875 182.84375 C 278.785156 190.890625 273.480469 198.179688 273.40625 204.503906 C 273.355469 208.964844 276.019531 211.175781 276.203125 211.320312 C 278.347656 212.6875 289.988281 221.5625 294.855469 226.980469 C 296.890625 229.242188 296.824219 232.609375 294.703125 234.636719 C 293.691406 235.601562 292.367188 236.132812 290.96875 236.132812 C 289.480469 236.132812 288.09375 235.539062 287.066406 234.464844 C 274.988281 221.847656 265.089844 215.710938 256.792969 215.710938 C 255.625 215.710938 254.480469 215.835938 253.390625 216.085938 C 250.171875 216.824219 244.949219 220.535156 241.804688 225.421875 C 230.726562 239.816406 227.109375 251.109375 226.089844 270.4375 C 225.472656 282.003906 228.597656 293.296875 232.101562 298.203125 C 237.03125 305.09375 242.015625 308.996094 243.90625 310.363281 C 243.90625 310.363281 245.421875 311.328125 246.003906 310.875 C 250.933594 307.003906 256.582031 304.96875 263.515625 304.96875 C 267.664062 304.96875 272.355469 305.667969 277.460938 307.046875 C 278.8125 307.414062 279.941406 308.300781 280.632812 309.539062 C 281.347656 310.808594 281.523438 312.34375 281.109375 313.742188 C 280.441406 316.03125 278.3125 317.628906 275.925781 317.628906 C 275.414062 317.628906 274.902344 317.550781 274.410156 317.410156 C 270.84375 316.371094 267.515625 315.925781 264.523438 315.839844 C 261.574219 315.761719 256.199219 316.039062 253.761719 318.789062 C 253.648438 318.917969 253.550781 319.042969 253.511719 319.203125 C 253.480469 319.355469 252.902344 332.503906 271.617188 339.210938 C 287.335938 344.839844 295.503906 345.023438 329.660156 345.023438 C 334.695312 345.023438 340.238281 344.972656 347.089844 344.859375 C 348.816406 344.808594 351.265625 343.960938 352.824219 342.152344 C 354.011719 340.777344 354.519531 339.054688 354.292969 337.253906 C 354.277344 334.351562 354.726562 331.703125 355.71875 328.917969 C 359.8125 317.449219 368.054688 309.964844 382.445312 304.625 C 383.054688 304.398438 383.683594 304.285156 384.324219 304.285156 C 386.570312 304.285156 388.601562 305.703125 389.386719 307.8125 C 389.886719 309.164062 389.835938 310.632812 389.230469 311.941406 C 388.628906 313.257812 387.554688 314.253906 386.203125 314.757812 C 375.199219 318.839844 368.421875 324.667969 366.050781 332.085938 C 362.058594 344.601562 371.300781 358.34375 371.410156 358.453125 C 398.914062 385.40625 452.34375 386.175781 455.027344 378.695312 C 457.289062 373.140625 458.847656 364.328125 453.390625 353.859375 C 444.84375 337.46875 415.855469 336.449219 415.5625 336.433594 C 412.585938 336.351562 410.226562 333.863281 410.3125 330.894531 C 410.390625 327.996094 412.820312 325.640625 415.84375 325.640625 C 417.296875 325.679688 451.460938 326.800781 462.964844 348.867188 C 469.210938 360.847656 468.332031 371.503906 466.488281 378.355469 C 466.046875 380.195312 466.382812 382.050781 467.378906 383.324219 C 468.019531 384.128906 469.210938 385.085938 471.328125 385.085938 C 471.328125 385.085938 490.253906 385.207031 505.71875 381.992188 C 507.808594 381.5625 509.804688 383.105469 510.128906 385.203125 C 510.457031 387.3125 509.011719 389.285156 506.910156 389.613281 C 484.214844 393.164062 464.316406 394.9375 447.042969 394.9375 C 426.171875 394.9375 409.128906 392.34375 395.597656 387.148438 C 395.824219 396.6875 399.066406 405.007812 404.960938 411.816406 C 405 411.871094 405.03125 411.910156 405.066406 411.964844 C 407.03125 414.03125 409.976562 416.957031 412.664062 419.410156 C 414.722656 421.285156 424.457031 427.488281 426.988281 429.015625 C 431.875 431.867188 454.097656 445.542969 456.234375 446.917969 C 466.015625 453.21875 468.914062 460.0625 469.21875 460.46875 C 470.261719 461.851562 470.800781 465.949219 470.800781 465.949219 C 471.683594 469.628906 475 472.359375 478.953125 472.351562 C 483.570312 472.339844 487.308594 468.582031 487.292969 463.964844 C 487.292969 463.964844 487.421875 454.570312 483.761719 448.136719 C 483.175781 446.945312 475.46875 434.316406 466.574219 427.457031 C 463.875 425.375 457.503906 420.714844 457.503906 420.714844 L 457.46875 420.699219 C 456.742188 420.203125 456.515625 419.230469 456.980469 418.476562 C 457.453125 417.710938 458.460938 417.46875 459.234375 417.9375 C 459.234375 417.9375 478 431.117188 489.765625 427.839844 C 507.058594 423.023438 529.691406 411.652344 529.691406 386.0625 C 529.691406 382.261719 529.3125 378.683594 528.589844 375.316406 C 530.992188 374.039062 533.375 372.59375 535.753906 370.933594 C 538.546875 368.695312 539.378906 365.925781 539.585938 363.996094 C 539.875 361.230469 539.074219 358.304688 537.496094 356.375 L 526.101562 341.703125 L 525.96875 341.554688 C 523.597656 338.539062 520.492188 337.910156 518.300781 337.910156 C 516.433594 337.910156 514.96875 338.359375 514.183594 338.65625 C 510.183594 340.675781 505.964844 342.332031 501.667969 343.578125 C 498.835938 344.390625 495.78125 342.671875 494.976562 339.886719 C 494.582031 338.5 494.738281 337.039062 495.433594 335.777344 C 496.132812 334.515625 497.277344 333.601562 498.664062 333.203125 C 508.46875 330.371094 526.160156 322.550781 534.542969 302 C 535.371094 299.957031 537.335938 298.640625 539.550781 298.640625 C 540.25 298.640625 540.933594 298.773438 541.582031 299.039062 C 544.339844 300.164062 545.675781 303.324219 544.546875 306.082031 C 541.855469 312.675781 538.171875 318.640625 533.53125 323.921875 C 531.414062 327.339844 531.6875 330.878906 534.398438 334.773438 L 541.84375 344.445312 C 541.941406 344.582031 542.078125 344.679688 542.238281 344.71875 C 542.363281 344.757812 545.269531 345.578125 549.421875 345.578125 C 555.015625 345.578125 562.929688 344.058594 568.851562 336.804688 C 583.328125 319.492188 584.035156 304.515625 584.542969 293.578125 C 584.597656 292.488281 584.644531 291.429688 584.707031 290.300781 C 584.066406 282.292969 578.949219 278.226562 576.664062 276.792969 Z M 354.914062 269.617188 C 347.949219 276.496094 340.265625 281.5625 332.085938 284.679688 C 331.992188 284.710938 331.914062 284.765625 331.847656 284.832031 C 328.082031 286.878906 326.765625 289.699219 327.46875 294.253906 L 330.570312 311.90625 C 330.847656 313.320312 330.558594 314.761719 329.753906 315.957031 C 328.949219 317.152344 327.730469 317.96875 326.3125 318.246094 C 323.394531 318.820312 320.53125 316.855469 319.96875 313.988281 L 316.589844 294.9375 C 315.554688 290.933594 311.710938 288.816406 309.21875 288.535156 C 309.121094 288.480469 309 288.445312 308.875 288.441406 C 282.027344 287.472656 260.539062 270.128906 260.324219 269.953125 C 259.210938 269.035156 258.515625 267.746094 258.371094 266.3125 C 258.230469 264.878906 258.65625 263.46875 259.566406 262.355469 C 260.59375 261.097656 262.121094 260.375 263.746094 260.375 C 264.984375 260.375 266.199219 260.808594 267.160156 261.59375 C 267.972656 262.253906 287.34375 277.789062 310.59375 277.789062 C 324.3125 277.789062 336.671875 272.453125 347.328125 261.9375 C 349.378906 259.90625 352.933594 259.925781 354.960938 261.984375 C 355.976562 263.007812 356.53125 264.371094 356.519531 265.8125 C 356.515625 267.25 355.941406 268.601562 354.914062 269.617188 Z M 362.035156 232.109375 C 345.15625 232.109375 333.082031 242.554688 332.570312 242.996094 C 331.585938 243.859375 330.320312 244.339844 329.011719 244.339844 C 327.453125 244.339844 325.972656 243.671875 324.953125 242.503906 C 324 241.421875 323.523438 240.03125 323.621094 238.589844 C 323.710938 237.152344 324.359375 235.835938 325.445312 234.882812 C 332.839844 228.386719 346.371094 221.445312 362.171875 221.445312 C 373.554688 221.445312 384.4375 225.054688 394.527344 232.175781 C 395.703125 233.007812 396.488281 234.25 396.730469 235.671875 C 396.976562 237.089844 396.652344 238.523438 395.824219 239.703125 C 394.8125 241.136719 393.160156 241.988281 391.40625 241.988281 C 390.289062 241.988281 389.214844 241.648438 388.296875 240.996094 C 379.945312 235.101562 371.105469 232.109375 362.035156 232.109375 Z M 487.015625 308.667969 C 486.085938 309.773438 484.78125 310.449219 483.347656 310.574219 C 460.089844 312.613281 442.761719 307.488281 432.222656 295.421875 C 430.578125 293.542969 429.070312 291.4375 427.746094 289.164062 C 427.714844 289.109375 427.671875 289.058594 427.632812 289.007812 C 426.230469 287.601562 424.316406 286.847656 421.929688 286.761719 C 421.085938 286.734375 420.195312 286.785156 419.203125 286.925781 C 419.097656 286.902344 412.371094 288.382812 405.769531 288.164062 C 390.882812 287.671875 381.3125 280.695312 380.914062 280.402344 C 378.515625 278.632812 378.007812 275.246094 379.773438 272.847656 C 380.828125 271.410156 382.53125 270.589844 384.3125 270.65625 C 385.394531 270.691406 386.425781 271.050781 387.304688 271.691406 C 387.605469 271.90625 394.796875 276.679688 406.058594 277.347656 C 411.503906 277.671875 416.84375 275.953125 417.492188 275.675781 C 421.65625 273.929688 421.5 269.3125 421.296875 267.523438 C 420.410156 257.085938 422.261719 248.757812 422.335938 248.40625 C 422.976562 245.550781 425.90625 243.675781 428.792969 244.328125 C 431.6875 244.984375 433.519531 247.875 432.871094 250.777344 C 432.820312 251.011719 427.902344 274.128906 440.394531 288.367188 C 448.554688 297.664062 462.773438 301.542969 482.410156 299.816406 C 485.441406 299.5625 488.007812 301.792969 488.257812 304.726562 C 488.382812 306.160156 487.945312 307.558594 487.015625 308.667969 Z M 482.773438 225.074219 C 473.101562 234.347656 468.339844 249.097656 470.648438 262.660156 C 471.101562 265.300781 469.316406 267.820312 466.679688 268.269531 C 466.402344 268.316406 466.125 268.339844 465.851562 268.339844 C 463.476562 268.339844 461.351562 266.65625 461.066406 264.292969 C 459.292969 249.804688 463.980469 236.425781 464.039062 236.289062 C 464.351562 235.527344 464.390625 234.867188 464.152344 234.324219 C 463.871094 233.65625 463.222656 233.289062 462.722656 233.089844 C 448.222656 231.484375 422.113281 225.96875 409.988281 207.042969 C 408.117188 204.289062 403.230469 205.703125 395.316406 205.691406 C 359.761719 205.628906 354.722656 182.792969 354.523438 181.820312 C 354.269531 180.550781 354.519531 179.25 355.238281 178.171875 C 355.953125 177.085938 357.046875 176.347656 358.320312 176.089844 C 358.640625 176.023438 358.964844 175.992188 359.289062 175.992188 C 361.566406 175.992188 363.5625 177.609375 364.042969 179.839844 C 364.195312 180.492188 368.09375 195.957031 395.398438 195.957031 C 396.75 195.957031 398.160156 195.917969 399.582031 195.839844 C 402.71875 195.457031 404.476562 193.804688 404.933594 190.796875 C 405.382812 180.277344 413.308594 172.457031 417.917969 169.496094 C 418.703125 168.988281 419.609375 168.722656 420.539062 168.722656 C 422.207031 168.722656 423.734375 169.558594 424.636719 170.957031 C 425.339844 172.050781 425.574219 173.351562 425.296875 174.617188 C 425.015625 175.886719 424.261719 176.972656 423.175781 177.671875 C 422.671875 178.003906 410.902344 185.875 415.886719 197.488281 C 424.867188 218.414062 455.410156 222.855469 468.121094 223.792969 C 469.726562 223.664062 471.554688 222.707031 473.121094 221.160156 C 474.195312 219.925781 475.128906 218.929688 476.050781 218.046875 C 488.40625 206.203125 489.148438 194.609375 489.171875 194.121094 C 489.308594 191.449219 491.59375 189.367188 494.25 189.503906 C 496.90625 189.625 498.984375 191.878906 498.882812 194.53125 C 498.863281 195.175781 498.113281 210.375 482.773438 225.074219 Z M 482.773438 225.074219 " fill-opacity="1" fill-rule="nonzero"/></g><path stroke-linecap="butt" transform="matrix(0.749998, 0.00149056, -0.00149056, 0.749998, 148.799689, 504.687523)" fill="none" stroke-linejoin="miter" d="M -0.00224398 5.999987 L 683.228316 6.001501 " stroke="#ffffff" stroke-width="12" stroke-opacity="1" stroke-miterlimit="4"/><g fill="#ffffff" fill-opacity="1"><g transform="translate(167.396841, 654.01963)"><g><path d="M 55.578125 -58.21875 L 78.765625 -58.21875 C 83.503906 -58.039062 86.398438 -56.8125 87.453125 -54.53125 C 88.328125 -52.851562 88.765625 -50.394531 88.765625 -47.15625 L 88.765625 -18.171875 C 88.765625 -15.359375 87.535156 -12.679688 85.078125 -10.140625 C 77.703125 -2.503906 66.640625 1.3125 51.890625 1.3125 C 38.804688 1.3125 27.4375 -3.625 17.78125 -13.5 C 8.125 -23.375 3.296875 -35.289062 3.296875 -49.25 C 3.296875 -63.21875 8.210938 -74.875 18.046875 -84.21875 C 27.878906 -93.570312 39.46875 -98.25 52.8125 -98.25 C 63.175781 -98.25 72.96875 -94.828125 82.1875 -87.984375 C 84.550781 -86.222656 85.734375 -84.265625 85.734375 -82.109375 C 85.734375 -79.960938 84.722656 -77.484375 82.703125 -74.671875 C 79.285156 -70.023438 76.171875 -67.703125 73.359375 -67.703125 C 71.691406 -67.703125 69.015625 -68.90625 65.328125 -71.3125 C 61.640625 -73.726562 57.25 -74.9375 52.15625 -74.9375 C 45.476562 -74.9375 39.550781 -72.585938 34.375 -67.890625 C 29.195312 -63.191406 26.609375 -57.046875 26.609375 -49.453125 C 26.609375 -41.859375 29.238281 -35.40625 34.5 -30.09375 C 39.769531 -24.78125 45.742188 -22.125 52.421875 -22.125 C 57.242188 -22.125 61.585938 -22.914062 65.453125 -24.5 L 65.453125 -38.859375 L 55.046875 -38.859375 C 52.328125 -38.859375 50.394531 -39.207031 49.25 -39.90625 C 48.113281 -40.601562 47.367188 -41.632812 47.015625 -43 C 46.660156 -44.363281 46.484375 -46.207031 46.484375 -48.53125 C 46.484375 -50.851562 46.679688 -52.71875 47.078125 -54.125 C 47.472656 -55.53125 48.195312 -56.5 49.25 -57.03125 C 50.832031 -57.820312 52.941406 -58.21875 55.578125 -58.21875 Z M 55.578125 -58.21875 "/></g></g></g><g fill="#ffffff" fill-opacity="1"><g transform="translate(261.435086, 654.01963)"><g><path d="M 28.578125 -23.3125 L 69.140625 -23.3125 C 71.160156 -23.3125 72.675781 -23.242188 73.6875 -23.109375 C 74.695312 -22.984375 75.859375 -22.566406 77.171875 -21.859375 C 79.546875 -20.628906 80.734375 -17.207031 80.734375 -11.59375 C 80.734375 -5.445312 79.109375 -1.847656 75.859375 -0.796875 C 74.367188 -0.265625 72.085938 0 69.015625 0 L 16.859375 0 C 10.710938 0 7.113281 -1.664062 6.0625 -5 C 5.53125 -6.40625 5.265625 -8.644531 5.265625 -11.71875 L 5.265625 -84.953125 C 5.265625 -89.429688 6.097656 -92.476562 7.765625 -94.09375 C 9.429688 -95.71875 12.59375 -96.53125 17.25 -96.53125 L 69.140625 -96.53125 C 71.160156 -96.53125 72.675781 -96.460938 73.6875 -96.328125 C 74.695312 -96.203125 75.859375 -95.789062 77.171875 -95.09375 C 79.546875 -93.863281 80.734375 -90.4375 80.734375 -84.8125 C 80.734375 -78.664062 79.109375 -75.066406 75.859375 -74.015625 C 74.367188 -73.492188 72.085938 -73.234375 69.015625 -73.234375 L 28.578125 -73.234375 L 28.578125 -59.921875 L 54.65625 -59.921875 C 56.675781 -59.921875 58.191406 -59.851562 59.203125 -59.71875 C 60.210938 -59.59375 61.375 -59.175781 62.6875 -58.46875 C 65.0625 -57.238281 66.25 -53.816406 66.25 -48.203125 C 66.25 -42.054688 64.578125 -38.457031 61.234375 -37.40625 C 59.742188 -36.875 57.460938 -36.609375 54.390625 -36.609375 L 28.578125 -36.609375 Z M 28.578125 -23.3125 "/></g></g></g><g fill="#ffffff" fill-opacity="1"><g transform="translate(345.463667, 654.01963)"><g><path d="M 67.625 -92.515625 C 68.457031 -94.054688 69.707031 -95.085938 71.375 -95.609375 C 73.050781 -96.140625 75.140625 -96.40625 77.640625 -96.40625 C 80.140625 -96.40625 82.15625 -96.1875 83.6875 -95.75 C 85.226562 -95.3125 86.367188 -94.785156 87.109375 -94.171875 C 87.859375 -93.554688 88.410156 -92.632812 88.765625 -91.40625 C 89.296875 -90 89.5625 -87.757812 89.5625 -84.6875 L 89.5625 -11.59375 C 89.5625 -9.476562 89.492188 -7.9375 89.359375 -6.96875 C 89.222656 -6.007812 88.804688 -4.875 88.109375 -3.5625 C 86.878906 -1.1875 83.457031 0 77.84375 0 C 74.414062 0 72.039062 -0.257812 70.71875 -0.78125 C 69.40625 -1.3125 68.3125 -2.148438 67.4375 -3.296875 C 47.675781 -29.628906 34.679688 -46.835938 28.453125 -54.921875 L 28.453125 -11.59375 C 28.453125 -9.476562 28.382812 -7.9375 28.25 -6.96875 C 28.113281 -6.007812 27.695312 -4.875 27 -3.5625 C 25.769531 -1.1875 22.34375 0 16.71875 0 C 11.28125 0 7.945312 -1.1875 6.71875 -3.5625 C 6.007812 -4.875 5.585938 -6.054688 5.453125 -7.109375 C 5.328125 -8.160156 5.265625 -9.695312 5.265625 -11.71875 L 5.265625 -85.21875 C 5.265625 -88.550781 5.679688 -90.984375 6.515625 -92.515625 C 7.347656 -94.054688 8.597656 -95.085938 10.265625 -95.609375 C 11.941406 -96.140625 14.09375 -96.40625 16.71875 -96.40625 C 19.351562 -96.40625 21.4375 -96.160156 22.96875 -95.671875 C 24.507812 -95.191406 25.585938 -94.644531 26.203125 -94.03125 C 26.554688 -93.769531 27.566406 -92.628906 29.234375 -90.609375 C 47.765625 -65.410156 60.144531 -48.773438 66.375 -40.703125 L 66.375 -85.21875 C 66.375 -88.550781 66.789062 -90.984375 67.625 -92.515625 Z M 67.625 -92.515625 "/></g></g></g><g fill="#ffffff" fill-opacity="1"><g transform="translate(440.292167, 654.01963)"><g><path d="M 5.265625 -84.953125 C 5.265625 -86.972656 5.328125 -88.484375 5.453125 -89.484375 C 5.585938 -90.492188 6.007812 -91.660156 6.71875 -92.984375 C 7.945312 -95.347656 11.367188 -96.53125 16.984375 -96.53125 C 23.128906 -96.53125 26.773438 -94.910156 27.921875 -91.671875 C 28.359375 -90.171875 28.578125 -87.882812 28.578125 -84.8125 L 28.578125 -11.59375 C 28.578125 -9.476562 28.507812 -7.9375 28.375 -6.96875 C 28.25 -6.007812 27.832031 -4.875 27.125 -3.5625 C 25.894531 -1.1875 22.472656 0 16.859375 0 C 10.710938 0 7.113281 -1.664062 6.0625 -5 C 5.53125 -6.40625 5.265625 -8.644531 5.265625 -11.71875 Z M 5.265625 -84.953125 "/></g></g></g><g fill="#ffffff" fill-opacity="1"><g transform="translate(474.140675, 654.01963)"><g><path d="M 68.34375 -92.984375 C 69.226562 -94.390625 70.503906 -95.351562 72.171875 -95.875 C 73.835938 -96.40625 75.921875 -96.671875 78.421875 -96.671875 C 80.929688 -96.671875 82.929688 -96.453125 84.421875 -96.015625 C 85.910156 -95.578125 87.050781 -95.050781 87.84375 -94.4375 C 88.632812 -93.820312 89.207031 -92.898438 89.5625 -91.671875 C 90.082031 -90.171875 90.34375 -87.882812 90.34375 -84.8125 L 90.34375 -45.046875 C 90.34375 -33.453125 86.742188 -22.914062 79.546875 -13.4375 C 76.035156 -8.957031 71.515625 -5.332031 65.984375 -2.5625 C 60.453125 0.195312 54.328125 1.578125 47.609375 1.578125 C 40.890625 1.578125 34.785156 0.175781 29.296875 -2.625 C 23.816406 -5.4375 19.363281 -9.128906 15.9375 -13.703125 C 8.820312 -23.003906 5.265625 -33.539062 5.265625 -45.3125 L 5.265625 -84.953125 C 5.265625 -87.054688 5.328125 -88.613281 5.453125 -89.625 C 5.585938 -90.632812 6.003906 -91.796875 6.703125 -93.109375 C 7.410156 -94.429688 8.597656 -95.351562 10.265625 -95.875 C 11.941406 -96.40625 14.179688 -96.671875 16.984375 -96.671875 C 19.796875 -96.671875 22.035156 -96.40625 23.703125 -95.875 C 25.367188 -95.351562 26.507812 -94.429688 27.125 -93.109375 C 28.1875 -91.085938 28.71875 -88.320312 28.71875 -84.8125 L 28.71875 -45.3125 C 28.71875 -39.945312 30.03125 -34.851562 32.65625 -30.03125 C 33.976562 -27.570312 35.957031 -25.59375 38.59375 -24.09375 C 41.226562 -22.601562 44.34375 -21.859375 47.9375 -21.859375 C 54.34375 -21.859375 59.125 -24.226562 62.28125 -28.96875 C 65.445312 -33.71875 67.03125 -39.207031 67.03125 -45.4375 L 67.03125 -85.734375 C 67.03125 -89.160156 67.46875 -91.578125 68.34375 -92.984375 Z M 68.34375 -92.984375 "/></g></g></g><g fill="#ffffff" fill-opacity="1"><g transform="translate(565.808154, 654.01963)"><g><path d="M 6.71875 -13.5625 C 4.4375 -16.375 3.296875 -18.898438 3.296875 -21.140625 C 3.296875 -23.378906 5.179688 -26.34375 8.953125 -30.03125 C 11.148438 -32.132812 13.476562 -33.1875 15.9375 -33.1875 C 18.394531 -33.1875 21.816406 -30.992188 26.203125 -26.609375 C 27.429688 -25.109375 29.1875 -23.675781 31.46875 -22.3125 C 33.757812 -20.957031 35.867188 -20.28125 37.796875 -20.28125 C 45.960938 -20.28125 50.046875 -23.617188 50.046875 -30.296875 C 50.046875 -32.316406 48.925781 -34.003906 46.6875 -35.359375 C 44.445312 -36.722656 41.660156 -37.710938 38.328125 -38.328125 C 34.992188 -38.941406 31.394531 -39.925781 27.53125 -41.28125 C 23.664062 -42.644531 20.0625 -44.25 16.71875 -46.09375 C 13.382812 -47.9375 10.597656 -50.851562 8.359375 -54.84375 C 6.117188 -58.84375 5 -63.65625 5 -69.28125 C 5 -77 7.875 -83.734375 13.625 -89.484375 C 19.382812 -95.242188 27.222656 -98.125 37.140625 -98.125 C 42.410156 -98.125 47.21875 -97.441406 51.5625 -96.078125 C 55.90625 -94.710938 58.910156 -93.328125 60.578125 -91.921875 L 63.875 -89.421875 C 66.59375 -86.878906 67.953125 -84.726562 67.953125 -82.96875 C 67.953125 -81.21875 66.898438 -78.804688 64.796875 -75.734375 C 61.804688 -71.335938 58.734375 -69.140625 55.578125 -69.140625 C 53.734375 -69.140625 51.453125 -70.019531 48.734375 -71.78125 C 48.460938 -71.957031 47.953125 -72.394531 47.203125 -73.09375 C 46.460938 -73.800781 45.785156 -74.375 45.171875 -74.8125 C 43.328125 -75.945312 40.976562 -76.515625 38.125 -76.515625 C 35.269531 -76.515625 32.898438 -75.832031 31.015625 -74.46875 C 29.128906 -73.113281 28.1875 -71.226562 28.1875 -68.8125 C 28.1875 -66.394531 29.304688 -64.441406 31.546875 -62.953125 C 33.785156 -61.460938 36.570312 -60.453125 39.90625 -59.921875 C 43.238281 -59.398438 46.878906 -58.585938 50.828125 -57.484375 C 54.785156 -56.390625 58.429688 -55.050781 61.765625 -53.46875 C 65.109375 -51.882812 67.894531 -49.140625 70.125 -45.234375 C 72.363281 -41.328125 73.484375 -36.519531 73.484375 -30.8125 C 73.484375 -25.113281 72.34375 -20.085938 70.0625 -15.734375 C 67.78125 -11.390625 64.796875 -8.03125 61.109375 -5.65625 C 53.992188 -1.007812 46.398438 1.3125 38.328125 1.3125 C 34.203125 1.3125 30.296875 0.804688 26.609375 -0.203125 C 22.921875 -1.210938 19.929688 -2.460938 17.640625 -3.953125 C 12.992188 -6.765625 9.75 -9.484375 7.90625 -12.109375 Z M 6.71875 -13.5625 "/></g></g></g></svg>
