<svg xmlns="http://www.w3.org/2000/svg" xmlns:xlink="http://www.w3.org/1999/xlink" width="40" zoomAndPan="magnify" viewBox="0 0 30 30.000001" height="40" preserveAspectRatio="xMidYMid meet" version="1.0"><defs><clipPath id="ab325ed1d5"><path d="M 1.230469 6 L 7 6 L 7 21 L 1.230469 21 Z M 1.230469 6 " clip-rule="nonzero"/></clipPath><clipPath id="4c45cdfab1"><path d="M 15 0.40625 L 20 0.40625 L 20 10 L 15 10 Z M 15 0.40625 " clip-rule="nonzero"/></clipPath><clipPath id="9c5b208bb4"><path d="M 1.230469 0.40625 L 16 0.40625 L 16 7 L 1.230469 7 Z M 1.230469 0.40625 " clip-rule="nonzero"/></clipPath><clipPath id="6dd47de7c8"><path d="M 14 0.40625 L 16 0.40625 L 16 1 L 14 1 Z M 14 0.40625 " clip-rule="nonzero"/></clipPath><clipPath id="3616bae42e"><path d="M 12 26 L 26 26 L 26 28.710938 L 12 28.710938 Z M 12 26 " clip-rule="nonzero"/></clipPath><clipPath id="215e76c6e3"><path d="M 25 14 L 28.808594 14 L 28.808594 28.710938 L 25 28.710938 Z M 25 14 " clip-rule="nonzero"/></clipPath><clipPath id="de23cf79c7"><path d="M 18 12 L 28.808594 12 L 28.808594 16 L 18 16 Z M 18 12 " clip-rule="nonzero"/></clipPath></defs><g clip-path="url(#ab325ed1d5)"><path fill="#ffffff" d="M 1.261719 6.152344 C 1.484375 7.089844 1.839844 7.996094 2.15625 8.902344 C 2.476562 9.804688 2.796875 10.707031 3.128906 11.601562 C 3.789062 13.410156 4.457031 15.214844 5.128906 17.015625 C 5.3125 17.515625 5.496094 18.015625 5.683594 18.519531 C 5.878906 19.039062 6.054688 19.566406 6.289062 20.074219 C 6.40625 20.332031 6.816406 20.148438 6.738281 19.882812 C 6.609375 19.421875 6.429688 18.976562 6.261719 18.53125 C 6.09375 18.074219 5.921875 17.613281 5.753906 17.15625 C 5.421875 16.257812 5.089844 15.363281 4.757812 14.464844 C 4.085938 12.660156 3.414062 10.855469 2.71875 9.0625 C 2.328125 8.054688 1.976562 7.019531 1.476562 6.0625 C 1.414062 5.9375 1.230469 6.027344 1.261719 6.152344 Z M 1.261719 6.152344 " fill-opacity="1" fill-rule="nonzero"/></g><g clip-path="url(#4c45cdfab1)"><path fill="#ffffff" d="M 15.003906 0.765625 C 15.046875 1.074219 15.214844 1.375 15.347656 1.65625 C 15.476562 1.933594 15.621094 2.238281 15.753906 2.53125 C 16.03125 3.121094 16.308594 3.714844 16.589844 4.300781 C 17.152344 5.480469 17.714844 6.660156 18.277344 7.835938 C 18.4375 8.167969 18.59375 8.5 18.753906 8.832031 C 18.914062 9.160156 19.054688 9.503906 19.234375 9.824219 C 19.34375 10.015625 19.6875 9.886719 19.601562 9.667969 C 19.480469 9.363281 19.324219 9.070312 19.183594 8.773438 C 19.042969 8.480469 18.90625 8.191406 18.765625 7.902344 C 18.484375 7.3125 18.199219 6.722656 17.917969 6.136719 C 17.355469 4.957031 16.789062 3.78125 16.21875 2.609375 C 16.054688 2.277344 15.894531 1.949219 15.734375 1.617188 C 15.582031 1.308594 15.445312 0.933594 15.207031 0.679688 C 15.140625 0.613281 14.992188 0.660156 15.003906 0.765625 Z M 15.003906 0.765625 " fill-opacity="1" fill-rule="nonzero"/></g><path fill="#ffffff" d="M 6.75 20.167969 C 6.949219 20.132812 7.132812 20.039062 7.316406 19.953125 C 7.496094 19.871094 7.679688 19.785156 7.863281 19.699219 C 8.222656 19.523438 8.585938 19.347656 8.949219 19.171875 C 9.675781 18.824219 10.402344 18.476562 11.128906 18.128906 C 12.574219 17.4375 14.019531 16.753906 15.46875 16.066406 C 15.871094 15.875 16.277344 15.683594 16.683594 15.496094 C 17.097656 15.300781 17.5 15.082031 17.910156 14.882812 C 18.011719 14.832031 18.035156 14.6875 17.984375 14.59375 C 17.921875 14.488281 17.800781 14.472656 17.695312 14.519531 C 16.960938 14.847656 16.222656 15.167969 15.488281 15.511719 C 14.761719 15.851562 14.03125 16.195312 13.304688 16.539062 C 11.859375 17.226562 10.414062 17.917969 8.972656 18.613281 C 8.566406 18.808594 8.164062 19.003906 7.761719 19.199219 C 7.5625 19.296875 7.367188 19.390625 7.171875 19.492188 C 6.960938 19.597656 6.746094 19.695312 6.570312 19.855469 C 6.417969 19.992188 6.582031 20.191406 6.75 20.164062 Z M 6.75 20.167969 " fill-opacity="1" fill-rule="nonzero"/><path fill="#ffffff" d="M 19.472656 9.746094 C 19.085938 10.550781 18.828125 11.417969 18.542969 12.261719 C 18.402344 12.683594 18.261719 13.101562 18.121094 13.523438 C 18.050781 13.734375 17.984375 13.941406 17.914062 14.152344 L 17.804688 14.496094 C 17.765625 14.605469 17.71875 14.699219 17.757812 14.816406 L 17.988281 14.679688 L 17.957031 14.652344 L 17.984375 14.722656 C 17.972656 14.625 17.984375 14.519531 17.976562 14.421875 C 17.96875 14.328125 17.964844 14.238281 17.957031 14.144531 C 17.945312 13.953125 17.929688 13.761719 17.914062 13.566406 C 17.882812 13.183594 17.839844 12.796875 17.800781 12.410156 C 17.757812 12.027344 17.71875 11.660156 17.679688 11.285156 C 17.660156 11.089844 17.640625 10.898438 17.621094 10.707031 C 17.609375 10.613281 17.601562 10.519531 17.589844 10.429688 C 17.574219 10.316406 17.527344 10.214844 17.511719 10.101562 C 17.480469 10.144531 17.445312 10.1875 17.414062 10.230469 C 17.757812 10.164062 18.113281 10.132812 18.464844 10.117188 C 18.8125 10.097656 19.160156 10.109375 19.507812 10.085938 C 19.761719 10.070312 19.753906 9.722656 19.507812 9.695312 C 19.152344 9.65625 18.769531 9.695312 18.414062 9.746094 C 18.050781 9.796875 17.695312 9.878906 17.339844 9.96875 C 17.289062 9.984375 17.234375 10.042969 17.242188 10.101562 C 17.25 10.203125 17.230469 10.300781 17.234375 10.402344 C 17.238281 10.496094 17.253906 10.585938 17.265625 10.675781 C 17.285156 10.871094 17.308594 11.0625 17.328125 11.253906 C 17.375 11.640625 17.417969 12.027344 17.460938 12.410156 C 17.503906 12.785156 17.542969 13.15625 17.59375 13.527344 C 17.621094 13.71875 17.644531 13.910156 17.675781 14.097656 C 17.6875 14.191406 17.703125 14.28125 17.714844 14.371094 C 17.726562 14.425781 17.730469 14.480469 17.742188 14.535156 C 17.75 14.570312 17.789062 14.683594 17.769531 14.707031 C 17.695312 14.820312 17.847656 14.976562 17.960938 14.898438 C 18.125 14.777344 18.160156 14.507812 18.222656 14.324219 C 18.292969 14.113281 18.359375 13.90625 18.429688 13.695312 C 18.574219 13.265625 18.710938 12.835938 18.851562 12.40625 C 19.128906 11.550781 19.441406 10.691406 19.613281 9.804688 C 19.628906 9.726562 19.515625 9.664062 19.472656 9.746094 Z M 19.472656 9.746094 " fill-opacity="1" fill-rule="nonzero"/><g clip-path="url(#9c5b208bb4)"><path fill="#ffffff" d="M 1.492188 6.273438 C 2.375 5.957031 3.230469 5.554688 4.09375 5.1875 C 4.964844 4.816406 5.839844 4.449219 6.710938 4.085938 C 8.457031 3.363281 10.207031 2.65625 11.960938 1.957031 C 12.953125 1.5625 13.960938 1.191406 14.949219 0.78125 C 15.039062 0.742188 15.101562 0.664062 15.074219 0.5625 C 15.050781 0.472656 14.945312 0.402344 14.855469 0.4375 C 13.957031 0.757812 13.074219 1.125 12.191406 1.472656 C 11.3125 1.820312 10.4375 2.171875 9.5625 2.527344 C 7.808594 3.238281 6.058594 3.96875 4.316406 4.707031 C 3.335938 5.121094 2.328125 5.511719 1.378906 6 C 1.230469 6.078125 1.332031 6.328125 1.492188 6.273438 Z M 1.492188 6.273438 " fill-opacity="1" fill-rule="nonzero"/></g><g clip-path="url(#6dd47de7c8)"><path fill="#ffffff" d="M 14.960938 0.507812 C 14.925781 0.519531 14.894531 0.535156 14.867188 0.5625 L 14.972656 0.519531 L 14.96875 0.519531 C 14.910156 0.519531 14.851562 0.550781 14.820312 0.601562 C 14.8125 0.617188 14.804688 0.632812 14.804688 0.648438 C 14.800781 0.664062 14.796875 0.679688 14.796875 0.695312 C 14.796875 0.699219 14.796875 0.703125 14.796875 0.703125 C 14.796875 0.707031 14.796875 0.707031 14.796875 0.710938 C 14.796875 0.722656 14.800781 0.742188 14.804688 0.757812 C 14.804688 0.761719 14.804688 0.761719 14.804688 0.765625 C 14.8125 0.78125 14.820312 0.804688 14.832031 0.820312 C 14.839844 0.835938 14.851562 0.851562 14.863281 0.863281 C 14.871094 0.867188 14.878906 0.875 14.886719 0.878906 C 14.898438 0.886719 14.90625 0.898438 14.917969 0.902344 C 14.933594 0.910156 14.949219 0.917969 14.964844 0.921875 C 14.96875 0.921875 14.972656 0.921875 14.976562 0.925781 C 14.992188 0.929688 15.007812 0.929688 15.023438 0.929688 C 15.027344 0.929688 15.027344 0.929688 15.027344 0.929688 C 15.03125 0.929688 15.035156 0.929688 15.035156 0.929688 C 15.066406 0.929688 15.105469 0.921875 15.128906 0.90625 C 15.140625 0.898438 15.15625 0.886719 15.167969 0.875 C 15.214844 0.835938 15.230469 0.765625 15.214844 0.710938 C 15.199219 0.757812 15.1875 0.808594 15.175781 0.855469 C 15.183594 0.84375 15.199219 0.832031 15.203125 0.816406 L 15.21875 0.78125 L 15.222656 0.742188 L 15.21875 0.703125 C 15.214844 0.6875 15.207031 0.667969 15.191406 0.65625 C 15.183594 0.644531 15.175781 0.636719 15.164062 0.628906 C 15.15625 0.621094 15.144531 0.613281 15.132812 0.609375 C 15.121094 0.601562 15.109375 0.597656 15.09375 0.597656 C 15.074219 0.59375 15.058594 0.597656 15.035156 0.601562 C 15.035156 0.601562 15.03125 0.601562 15.027344 0.601562 L 15.070312 0.597656 C 15.070312 0.597656 15.066406 0.597656 15.066406 0.597656 L 15.195312 0.671875 C 15.191406 0.660156 15.179688 0.648438 15.167969 0.636719 L 15.132812 0.609375 C 15.113281 0.59375 15.105469 0.597656 15.089844 0.589844 C 15.089844 0.589844 15.085938 0.589844 15.082031 0.589844 L 15.125 0.605469 C 15.109375 0.601562 15.097656 0.59375 15.082031 0.589844 C 15.078125 0.589844 15.035156 0.582031 15.035156 0.582031 C 15.03125 0.582031 15.027344 0.582031 15.027344 0.582031 C 15.023438 0.582031 15.019531 0.582031 15.015625 0.582031 L 15.0625 0.589844 C 15.054688 0.589844 15.050781 0.585938 15.042969 0.585938 L 15.085938 0.601562 C 15.085938 0.601562 15.074219 0.597656 15.070312 0.59375 L 15.105469 0.621094 C 15.105469 0.621094 15.097656 0.613281 15.09375 0.613281 L 15.121094 0.644531 C 15.121094 0.644531 15.117188 0.636719 15.117188 0.632812 L 15.132812 0.675781 C 15.132812 0.675781 15.128906 0.664062 15.128906 0.660156 L 15.132812 0.707031 C 15.132812 0.707031 15.132812 0.699219 15.132812 0.695312 C 15.132812 0.695312 15.132812 0.691406 15.132812 0.691406 C 15.132812 0.6875 15.128906 0.648438 15.128906 0.644531 C 15.125 0.636719 15.125 0.628906 15.117188 0.625 C 15.113281 0.609375 15.109375 0.597656 15.097656 0.585938 C 15.089844 0.574219 15.078125 0.5625 15.066406 0.554688 C 15.0625 0.550781 15.054688 0.542969 15.046875 0.539062 L 15.121094 0.671875 C 15.121094 0.671875 15.121094 0.667969 15.121094 0.667969 L 15.113281 0.707031 C 15.113281 0.703125 15.117188 0.695312 15.121094 0.6875 L 15.105469 0.722656 C 15.105469 0.722656 15.109375 0.714844 15.113281 0.707031 L 15.125 0.675781 L 15.128906 0.640625 L 15.125 0.601562 C 15.121094 0.585938 15.113281 0.570312 15.101562 0.554688 C 15.09375 0.546875 15.085938 0.539062 15.078125 0.53125 C 15.066406 0.523438 15.058594 0.515625 15.046875 0.515625 C 15.035156 0.507812 15.023438 0.503906 15.011719 0.503906 C 14.996094 0.5 14.976562 0.5 14.957031 0.507812 Z M 14.960938 0.507812 " fill-opacity="1" fill-rule="nonzero"/></g><path fill="#ffffff" d="M 14.585938 16.066406 C 14.085938 17.359375 13.777344 18.734375 13.445312 20.082031 C 13.117188 21.421875 12.820312 22.773438 12.546875 24.128906 C 12.390625 24.898438 12.242188 25.671875 12.105469 26.445312 C 12.058594 26.703125 12.457031 26.8125 12.503906 26.554688 C 12.988281 23.824219 13.574219 21.109375 14.25 18.417969 C 14.347656 18.042969 14.4375 17.664062 14.53125 17.289062 C 14.625 16.910156 14.707031 16.511719 14.777344 16.117188 C 14.796875 15.992188 14.632812 15.949219 14.585938 16.066406 Z M 14.585938 16.066406 " fill-opacity="1" fill-rule="nonzero"/><g clip-path="url(#3616bae42e)"><path fill="#ffffff" d="M 12.304688 26.664062 C 12.714844 26.8125 13.175781 26.839844 13.605469 26.90625 C 14.039062 26.96875 14.476562 27.035156 14.914062 27.097656 C 15.789062 27.226562 16.660156 27.359375 17.535156 27.484375 C 19.269531 27.734375 21.003906 27.972656 22.734375 28.210938 C 23.722656 28.347656 24.707031 28.472656 25.695312 28.609375 C 25.804688 28.621094 25.910156 28.582031 25.941406 28.46875 C 25.96875 28.375 25.910156 28.234375 25.800781 28.21875 C 24.050781 27.972656 22.300781 27.71875 20.550781 27.472656 C 18.800781 27.226562 17.046875 27.003906 15.292969 26.773438 C 14.800781 26.707031 14.308594 26.644531 13.8125 26.578125 C 13.578125 26.546875 13.339844 26.519531 13.101562 26.488281 C 12.851562 26.457031 12.589844 26.417969 12.335938 26.433594 C 12.203125 26.441406 12.179688 26.621094 12.304688 26.664062 Z M 12.304688 26.664062 " fill-opacity="1" fill-rule="nonzero"/></g><g clip-path="url(#215e76c6e3)"><path fill="#ffffff" d="M 26.128906 28.378906 C 26.230469 27.945312 26.285156 27.5 26.359375 27.066406 C 26.433594 26.636719 26.503906 26.203125 26.574219 25.773438 C 26.71875 24.90625 26.867188 24.035156 27.023438 23.167969 C 27.332031 21.449219 27.667969 19.738281 28.035156 18.03125 C 28.238281 17.070312 28.484375 16.117188 28.667969 15.152344 C 28.714844 14.890625 28.332031 14.773438 28.257812 15.039062 C 28.027344 15.898438 27.867188 16.78125 27.6875 17.652344 C 27.511719 18.507812 27.34375 19.363281 27.179688 20.222656 C 26.855469 21.9375 26.554688 23.660156 26.285156 25.386719 C 26.207031 25.867188 26.132812 26.351562 26.070312 26.835938 C 26.003906 27.335938 25.914062 27.839844 25.886719 28.347656 C 25.878906 28.484375 26.097656 28.515625 26.128906 28.378906 Z M 26.128906 28.378906 " fill-opacity="1" fill-rule="nonzero"/></g><g clip-path="url(#de23cf79c7)"><path fill="#ffffff" d="M 18.382812 13.214844 C 19.023438 13.4375 19.703125 13.5625 20.367188 13.699219 C 21.035156 13.835938 21.707031 13.96875 22.375 14.097656 C 23.714844 14.351562 25.054688 14.613281 26.40625 14.820312 C 26.773438 14.878906 27.144531 14.933594 27.511719 14.988281 C 27.703125 15.015625 27.890625 15.042969 28.082031 15.070312 C 28.28125 15.101562 28.472656 15.164062 28.652344 15.054688 C 28.742188 15 28.753906 14.878906 28.683594 14.804688 C 28.566406 14.671875 28.421875 14.667969 28.253906 14.644531 C 28.074219 14.617188 27.894531 14.589844 27.714844 14.5625 C 27.378906 14.511719 27.046875 14.457031 26.714844 14.402344 C 26.042969 14.296875 25.367188 14.191406 24.691406 14.082031 C 23.34375 13.855469 21.996094 13.632812 20.65625 13.371094 C 19.910156 13.230469 19.167969 13.054688 18.410156 12.988281 C 18.277344 12.980469 18.265625 13.171875 18.382812 13.214844 Z M 18.382812 13.214844 " fill-opacity="1" fill-rule="nonzero"/></g><path fill="#ffffff" d="M 15.480469 22.730469 C 15.617188 22.601562 15.664062 22.402344 15.730469 22.226562 C 15.796875 22.035156 15.867188 21.847656 15.929688 21.652344 C 16.054688 21.277344 16.179688 20.902344 16.296875 20.523438 C 16.417969 20.148438 16.535156 19.769531 16.652344 19.394531 C 16.714844 19.199219 16.777344 19.007812 16.835938 18.8125 C 16.894531 18.621094 16.96875 18.429688 17.011719 18.234375 C 17.074219 17.941406 16.683594 17.847656 16.570312 18.113281 C 16.496094 18.296875 16.445312 18.5 16.386719 18.691406 C 16.328125 18.882812 16.269531 19.078125 16.207031 19.269531 C 16.09375 19.648438 15.976562 20.023438 15.859375 20.402344 C 15.742188 20.78125 15.632812 21.160156 15.519531 21.539062 C 15.464844 21.730469 15.414062 21.925781 15.363281 22.125 C 15.3125 22.308594 15.246094 22.488281 15.285156 22.679688 C 15.304688 22.769531 15.421875 22.785156 15.480469 22.730469 Z M 15.480469 22.730469 " fill-opacity="1" fill-rule="nonzero"/><path fill="#ffffff" d="M 16.785156 18.441406 C 16.949219 18.519531 17.136719 18.5625 17.3125 18.613281 C 17.484375 18.667969 17.664062 18.707031 17.835938 18.75 C 18.011719 18.796875 18.1875 18.84375 18.363281 18.882812 C 18.53125 18.917969 18.757812 18.960938 18.914062 18.878906 C 18.980469 18.84375 19.011719 18.742188 18.96875 18.675781 C 18.867188 18.53125 18.65625 18.460938 18.492188 18.414062 C 18.316406 18.367188 18.140625 18.328125 17.964844 18.285156 C 17.789062 18.242188 17.613281 18.195312 17.4375 18.160156 C 17.261719 18.125 17.070312 18.070312 16.886719 18.0625 C 16.691406 18.054688 16.601562 18.351562 16.785156 18.441406 Z M 16.785156 18.441406 " fill-opacity="1" fill-rule="nonzero"/><path fill="#ffffff" d="M 16.066406 20.777344 C 16.183594 20.851562 16.339844 20.855469 16.472656 20.882812 C 16.613281 20.910156 16.75 20.945312 16.886719 20.976562 C 17.15625 21.046875 17.421875 21.125 17.691406 21.199219 C 17.796875 21.226562 17.910156 21.164062 17.9375 21.058594 C 17.96875 20.945312 17.898438 20.847656 17.796875 20.8125 C 17.53125 20.714844 17.25 20.644531 16.976562 20.585938 C 16.84375 20.558594 16.710938 20.53125 16.574219 20.511719 C 16.425781 20.488281 16.253906 20.4375 16.105469 20.472656 C 15.960938 20.507812 15.945312 20.707031 16.066406 20.777344 Z M 16.066406 20.777344 " fill-opacity="1" fill-rule="nonzero"/><path fill="#ffffff" d="M 15.382812 22.679688 C 15.4375 22.828125 15.671875 22.863281 15.808594 22.902344 C 15.984375 22.949219 16.167969 22.980469 16.347656 23.019531 C 16.699219 23.101562 17.050781 23.179688 17.402344 23.269531 C 17.644531 23.332031 17.75 22.957031 17.503906 22.890625 C 17.15625 22.796875 16.804688 22.703125 16.453125 22.636719 C 16.277344 22.601562 16.097656 22.5625 15.921875 22.539062 C 15.789062 22.519531 15.507812 22.460938 15.410156 22.578125 C 15.386719 22.605469 15.367188 22.644531 15.382812 22.679688 Z M 15.382812 22.679688 " fill-opacity="1" fill-rule="nonzero"/><path fill="#ffffff" d="M 18.46875 21.375 C 18.65625 21.441406 18.847656 21.480469 19.039062 21.519531 C 19.128906 21.539062 19.222656 21.554688 19.316406 21.574219 C 19.417969 21.59375 19.535156 21.613281 19.640625 21.609375 C 19.714844 21.605469 19.777344 21.554688 19.785156 21.480469 C 19.796875 21.402344 19.75 21.34375 19.679688 21.316406 C 19.5 21.242188 19.289062 21.234375 19.101562 21.207031 C 18.902344 21.179688 18.703125 21.152344 18.5 21.152344 C 18.367188 21.152344 18.351562 21.335938 18.472656 21.378906 Z M 18.46875 21.375 " fill-opacity="1" fill-rule="nonzero"/><path fill="#ffffff" d="M 18.847656 20.417969 C 19.019531 20.425781 19.191406 20.457031 19.367188 20.503906 C 19.453125 20.523438 19.535156 20.554688 19.621094 20.585938 C 19.625 20.585938 19.699219 20.617188 19.660156 20.597656 C 19.675781 20.605469 19.691406 20.613281 19.710938 20.621094 C 19.796875 20.660156 19.890625 20.695312 19.980469 20.636719 C 20.03125 20.601562 20.078125 20.542969 20.074219 20.472656 C 20.0625 20.371094 20.011719 20.304688 19.921875 20.261719 C 19.867188 20.234375 19.804688 20.214844 19.746094 20.191406 C 19.648438 20.160156 19.546875 20.140625 19.441406 20.125 C 19.339844 20.113281 19.234375 20.101562 19.128906 20.109375 C 19.023438 20.121094 18.914062 20.140625 18.8125 20.167969 C 18.667969 20.203125 18.707031 20.410156 18.84375 20.414062 Z M 18.847656 20.417969 " fill-opacity="1" fill-rule="nonzero"/><path fill="#ffffff" d="M 20.832031 19.480469 C 20.757812 19.941406 20.65625 20.394531 20.550781 20.847656 C 20.5 21.070312 20.441406 21.292969 20.378906 21.511719 C 20.347656 21.621094 20.316406 21.730469 20.28125 21.84375 C 20.246094 21.960938 20.191406 22.074219 20.160156 22.191406 C 20.085938 22.445312 20.472656 22.550781 20.550781 22.300781 C 20.628906 22.070312 20.667969 21.816406 20.722656 21.578125 C 20.773438 21.355469 20.820312 21.132812 20.859375 20.90625 C 20.941406 20.445312 20.992188 19.972656 21.027344 19.507812 C 21.035156 19.398438 20.851562 19.371094 20.832031 19.480469 Z M 20.832031 19.480469 " fill-opacity="1" fill-rule="nonzero"/><path fill="#ffffff" d="M 20.832031 20.859375 C 20.90625 20.683594 21.0625 20.316406 21.316406 20.390625 C 21.550781 20.460938 21.527344 20.816406 21.519531 21 C 21.507812 21.289062 21.460938 21.570312 21.390625 21.847656 C 21.355469 21.984375 21.316406 22.117188 21.273438 22.253906 C 21.226562 22.398438 21.148438 22.546875 21.121094 22.695312 L 21.453125 22.609375 C 21.335938 22.507812 21.289062 22.511719 21.171875 22.609375 C 20.960938 22.78125 21.316406 23.105469 21.484375 22.847656 C 21.589844 22.683594 21.644531 22.460938 21.703125 22.273438 C 21.757812 22.09375 21.804688 21.914062 21.839844 21.730469 C 21.914062 21.363281 21.988281 20.933594 21.902344 20.5625 C 21.828125 20.242188 21.527344 19.9375 21.175781 20.035156 C 20.8125 20.136719 20.722656 20.515625 20.6875 20.84375 C 20.675781 20.933594 20.804688 20.933594 20.835938 20.863281 Z M 20.832031 20.859375 " fill-opacity="1" fill-rule="nonzero"/><path fill="#ffffff" d="M 21.773438 21.046875 C 21.894531 20.882812 22.09375 20.582031 22.335938 20.628906 C 22.527344 20.664062 22.585938 20.917969 22.605469 21.074219 C 22.683594 21.628906 22.503906 22.1875 22.296875 22.695312 C 22.25 22.8125 22.253906 22.988281 22.390625 23.046875 C 22.546875 23.113281 22.667969 22.960938 22.707031 22.832031 C 22.796875 22.558594 22.871094 22.273438 22.925781 21.992188 C 23.015625 21.535156 23.078125 20.917969 22.773438 20.523438 C 22.605469 20.304688 22.335938 20.234375 22.082031 20.34375 C 21.820312 20.457031 21.699219 20.722656 21.621094 20.984375 C 21.589844 21.078125 21.71875 21.117188 21.773438 21.046875 Z M 21.773438 21.046875 " fill-opacity="1" fill-rule="nonzero"/><path fill="#ffffff" d="M 24.730469 21.261719 C 24.597656 21.003906 24.300781 20.902344 24.023438 20.941406 C 23.714844 20.988281 23.453125 21.242188 23.292969 21.496094 C 22.964844 22.023438 23.03125 22.839844 23.640625 23.132812 C 23.941406 23.28125 24.382812 23.28125 24.59375 22.980469 C 24.6875 22.84375 24.53125 22.667969 24.382812 22.710938 C 24.320312 22.726562 24.257812 22.75 24.195312 22.765625 C 24.128906 22.78125 24.117188 22.785156 24.050781 22.785156 C 23.960938 22.785156 23.855469 22.75 23.78125 22.691406 C 23.597656 22.546875 23.519531 22.304688 23.546875 22.078125 C 23.574219 21.828125 23.722656 21.5625 23.917969 21.410156 C 24.117188 21.253906 24.398438 21.1875 24.597656 21.363281 C 24.667969 21.425781 24.777344 21.347656 24.730469 21.257812 Z M 24.730469 21.261719 " fill-opacity="1" fill-rule="nonzero"/><path fill="#ffffff" d="M 25.070312 19.828125 C 25.070312 19.734375 25.195312 19.742188 25.242188 19.792969 C 25.316406 19.875 25.335938 19.976562 25.332031 20.074219 C 25.328125 20.164062 25.292969 20.25 25.234375 20.332031 C 25.226562 20.347656 25.214844 20.363281 25.191406 20.382812 C 25.179688 20.398438 25.148438 20.425781 25.140625 20.429688 C 25.136719 20.433594 25.101562 20.457031 25.085938 20.46875 C 25.046875 20.488281 25.066406 20.480469 25.027344 20.492188 C 24.941406 20.523438 24.882812 20.597656 24.898438 20.691406 C 24.910156 20.773438 24.984375 20.859375 25.074219 20.847656 C 25.117188 20.84375 25.160156 20.84375 25.203125 20.84375 C 25.207031 20.84375 25.269531 20.847656 25.238281 20.84375 C 25.261719 20.847656 25.277344 20.851562 25.296875 20.855469 C 25.382812 20.875 25.417969 20.890625 25.488281 20.9375 C 25.5 20.941406 25.535156 20.96875 25.535156 20.96875 C 25.53125 20.964844 25.558594 20.992188 25.566406 20.996094 C 25.597656 21.027344 25.625 21.054688 25.660156 21.082031 C 25.707031 21.121094 25.75 21.152344 25.8125 21.152344 C 25.886719 21.148438 25.945312 21.089844 25.957031 21.015625 C 25.980469 20.820312 25.75 20.652344 25.59375 20.574219 C 25.414062 20.488281 25.222656 20.457031 25.023438 20.492188 L 25.121094 20.839844 C 25.480469 20.691406 25.707031 20.304688 25.617188 19.917969 C 25.574219 19.722656 25.429688 19.527344 25.214844 19.519531 C 25.035156 19.507812 24.863281 19.667969 24.902344 19.851562 C 24.921875 19.945312 25.066406 19.921875 25.066406 19.828125 Z M 25.070312 19.828125 " fill-opacity="1" fill-rule="nonzero"/><path fill="#ffffff" d="M 5.15625 11.203125 C 5.242188 11.253906 5.34375 11.234375 5.4375 11.21875 C 5.515625 11.203125 5.59375 11.1875 5.667969 11.167969 C 5.824219 11.121094 5.980469 11.050781 6.128906 10.972656 C 6.195312 10.9375 6.230469 10.847656 6.207031 10.773438 C 6.199219 10.742188 6.183594 10.722656 6.164062 10.699219 C 6.109375 10.636719 6.015625 10.632812 5.949219 10.667969 C 5.882812 10.707031 5.820312 10.734375 5.753906 10.765625 C 5.742188 10.769531 5.734375 10.773438 5.722656 10.777344 C 5.742188 10.769531 5.742188 10.769531 5.722656 10.777344 C 5.707031 10.785156 5.695312 10.789062 5.679688 10.796875 C 5.644531 10.808594 5.605469 10.824219 5.570312 10.835938 C 5.503906 10.863281 5.433594 10.890625 5.363281 10.910156 C 5.28125 10.9375 5.1875 10.953125 5.132812 11.023438 C 5.085938 11.078125 5.089844 11.160156 5.15625 11.203125 Z M 5.15625 11.203125 " fill-opacity="1" fill-rule="nonzero"/><path fill="#ffffff" d="M 6.03125 10.757812 C 6.183594 11.101562 6.386719 11.421875 6.585938 11.738281 C 6.785156 12.054688 6.980469 12.371094 7.183594 12.6875 C 7.589844 13.316406 7.984375 13.957031 8.40625 14.570312 C 8.542969 14.765625 8.855469 14.648438 8.796875 14.40625 C 8.570312 13.511719 8.402344 12.609375 8.253906 11.695312 C 8.183594 11.246094 8.117188 10.800781 8.066406 10.347656 C 8.039062 10.113281 8.015625 9.878906 7.992188 9.648438 C 7.96875 9.414062 7.960938 9.175781 7.914062 8.949219 C 7.871094 8.738281 7.542969 8.789062 7.542969 9 C 7.542969 9.230469 7.582031 9.46875 7.613281 9.699219 C 7.640625 9.933594 7.671875 10.164062 7.703125 10.394531 C 7.765625 10.851562 7.828125 11.308594 7.898438 11.765625 C 8.042969 12.6875 8.214844 13.605469 8.386719 14.519531 L 8.773438 14.355469 C 8.378906 13.710938 7.953125 13.078125 7.539062 12.445312 C 7.335938 12.132812 7.125 11.820312 6.917969 11.507812 C 6.707031 11.195312 6.492188 10.878906 6.242188 10.597656 C 6.132812 10.476562 5.976562 10.628906 6.03125 10.757812 Z M 6.03125 10.757812 " fill-opacity="1" fill-rule="nonzero"/><path fill="#ffffff" d="M 7.824219 9.019531 C 8.0625 8.980469 8.308594 8.832031 8.527344 8.738281 C 8.765625 8.636719 9 8.53125 9.238281 8.429688 C 9.71875 8.222656 10.199219 8.011719 10.679688 7.804688 C 11.15625 7.597656 11.632812 7.410156 12.105469 7.199219 C 12.34375 7.097656 12.578125 6.992188 12.8125 6.886719 C 12.929688 6.835938 13.050781 6.789062 13.160156 6.722656 C 13.277344 6.648438 13.351562 6.550781 13.457031 6.464844 C 13.550781 6.386719 13.445312 6.265625 13.347656 6.28125 C 13.226562 6.300781 13.113281 6.285156 12.992188 6.320312 C 12.867188 6.355469 12.75 6.417969 12.632812 6.46875 C 12.386719 6.578125 12.144531 6.6875 11.902344 6.796875 C 11.433594 7.007812 10.972656 7.238281 10.507812 7.453125 C 10.039062 7.667969 9.570312 7.878906 9.101562 8.09375 C 8.867188 8.199219 8.636719 8.304688 8.402344 8.414062 C 8.164062 8.519531 7.886719 8.613281 7.683594 8.777344 C 7.554688 8.875 7.699219 9.039062 7.824219 9.019531 Z M 7.824219 9.019531 " fill-opacity="1" fill-rule="nonzero"/><path fill="#ffffff" d="M 9.578125 10.34375 C 9.515625 10.171875 9.597656 9.996094 9.742188 9.894531 C 9.886719 9.792969 10.066406 9.808594 10.21875 9.886719 C 10.621094 10.097656 10.679688 10.597656 10.671875 11.003906 C 10.65625 11.835938 10.585938 12.917969 9.789062 13.386719 C 9.90625 13.457031 10.023438 13.523438 10.140625 13.589844 C 10.144531 13.257812 10.414062 13.011719 10.722656 12.925781 C 10.933594 12.867188 11.167969 12.878906 11.382812 12.917969 C 11.621094 12.960938 11.863281 13.070312 12.101562 12.996094 C 12.230469 12.957031 12.265625 12.804688 12.179688 12.707031 C 11.980469 12.484375 11.605469 12.453125 11.320312 12.417969 C 11.035156 12.382812 10.746094 12.394531 10.480469 12.496094 C 10.042969 12.667969 9.625 13.082031 9.671875 13.589844 C 9.6875 13.746094 9.867188 13.90625 10.023438 13.789062 C 10.800781 13.214844 10.988281 12.257812 11.023438 11.347656 C 11.039062 10.898438 11.058594 10.402344 10.816406 10.003906 C 10.613281 9.675781 10.214844 9.398438 9.816406 9.527344 C 9.453125 9.640625 9.191406 10.0625 9.394531 10.417969 C 9.449219 10.511719 9.613281 10.449219 9.574219 10.339844 Z M 9.578125 10.34375 " fill-opacity="1" fill-rule="nonzero"/><path fill="#ffffff" d="M 12.871094 8.734375 C 12.28125 8.953125 11.890625 9.570312 11.9375 10.199219 C 11.992188 10.882812 12.515625 11.464844 13.175781 11.636719 C 13.546875 11.730469 13.96875 11.699219 14.289062 11.476562 C 14.59375 11.261719 14.785156 10.921875 14.894531 10.574219 C 15.125 9.839844 14.910156 9.03125 14.214844 8.648438 C 13.875 8.460938 13.472656 8.414062 13.101562 8.527344 C 12.914062 8.585938 12.730469 8.679688 12.582031 8.808594 C 12.425781 8.941406 12.371094 9.105469 12.3125 9.292969 C 12.273438 9.433594 12.457031 9.539062 12.554688 9.433594 C 12.636719 9.347656 12.753906 9.289062 12.847656 9.214844 C 12.945312 9.144531 13.042969 9.070312 13.15625 9.023438 C 13.382812 8.933594 13.628906 8.925781 13.859375 9.011719 C 14.351562 9.195312 14.570312 9.710938 14.480469 10.210938 C 14.429688 10.472656 14.328125 10.753906 14.140625 10.953125 C 13.957031 11.148438 13.703125 11.21875 13.441406 11.1875 C 12.96875 11.125 12.5625 10.765625 12.402344 10.324219 C 12.210938 9.800781 12.460938 9.175781 12.949219 8.914062 C 13.042969 8.863281 12.976562 8.699219 12.875 8.734375 Z M 12.871094 8.734375 " fill-opacity="1" fill-rule="nonzero"/><path fill="#ffffff" d="M 11.949219 15.667969 C 12.253906 15.726562 12.558594 15.792969 12.867188 15.835938 C 12.878906 15.839844 12.882812 15.824219 12.871094 15.824219 C 12.570312 15.75 12.261719 15.699219 11.957031 15.644531 C 11.941406 15.640625 11.933594 15.664062 11.949219 15.667969 Z M 11.949219 15.667969 " fill-opacity="1" fill-rule="nonzero"/><path fill="#ffffff" d="M 12.167969 15.265625 C 12.492188 15.335938 12.820312 15.398438 13.144531 15.460938 C 13.457031 15.523438 13.773438 15.59375 14.089844 15.632812 C 14.105469 15.636719 14.109375 15.609375 14.09375 15.605469 C 13.777344 15.527344 13.457031 15.476562 13.136719 15.414062 C 12.816406 15.355469 12.496094 15.292969 12.175781 15.238281 C 12.15625 15.234375 12.148438 15.261719 12.167969 15.265625 Z M 12.167969 15.265625 " fill-opacity="1" fill-rule="nonzero"/><path fill="#ffffff" d="M 12.566406 14.65625 C 13.035156 14.71875 13.507812 14.800781 13.972656 14.898438 C 14.199219 14.949219 14.421875 15 14.644531 15.058594 C 14.867188 15.113281 15.085938 15.191406 15.3125 15.230469 C 15.332031 15.234375 15.335938 15.210938 15.320312 15.203125 C 15.09375 15.109375 14.84375 15.054688 14.605469 14.996094 C 14.382812 14.941406 14.160156 14.890625 13.933594 14.84375 C 13.480469 14.75 13.023438 14.679688 12.566406 14.628906 C 12.546875 14.625 12.546875 14.652344 12.566406 14.65625 Z M 12.566406 14.65625 " fill-opacity="1" fill-rule="nonzero"/><path fill="#ffffff" d="M 13.042969 14 C 13.605469 14.101562 14.167969 14.230469 14.71875 14.390625 C 14.988281 14.46875 15.253906 14.554688 15.515625 14.644531 C 15.792969 14.742188 16.066406 14.875 16.351562 14.949219 C 16.367188 14.953125 16.378906 14.925781 16.363281 14.917969 C 16.132812 14.78125 15.859375 14.703125 15.605469 14.617188 C 15.328125 14.519531 15.042969 14.429688 14.761719 14.347656 C 14.199219 14.183594 13.628906 14.058594 13.050781 13.960938 C 13.027344 13.957031 13.015625 13.996094 13.042969 14 Z M 13.042969 14 " fill-opacity="1" fill-rule="nonzero"/><path fill="#ffffff" d="M 13.574219 13.367188 C 14.203125 13.554688 14.835938 13.734375 15.464844 13.914062 C 15.773438 14 16.082031 14.085938 16.386719 14.175781 C 16.6875 14.261719 17.007812 14.386719 17.320312 14.421875 C 17.339844 14.425781 17.347656 14.394531 17.328125 14.386719 C 17.050781 14.257812 16.722656 14.203125 16.429688 14.121094 L 15.480469 13.859375 C 14.847656 13.683594 14.214844 13.507812 13.578125 13.339844 C 13.5625 13.332031 13.554688 13.363281 13.570312 13.367188 Z M 13.574219 13.367188 " fill-opacity="1" fill-rule="nonzero"/><path fill="#ffffff" d="M 14.65625 12.871094 C 15.195312 13.035156 15.734375 13.199219 16.273438 13.355469 C 16.535156 13.4375 16.800781 13.515625 17.066406 13.59375 C 17.316406 13.667969 17.585938 13.78125 17.84375 13.804688 C 17.867188 13.808594 17.871094 13.773438 17.855469 13.765625 C 17.628906 13.648438 17.351562 13.601562 17.113281 13.53125 C 16.835938 13.449219 16.5625 13.371094 16.289062 13.292969 C 15.75 13.136719 15.210938 12.980469 14.667969 12.828125 C 14.640625 12.820312 14.628906 12.863281 14.65625 12.871094 Z M 14.65625 12.871094 " fill-opacity="1" fill-rule="nonzero"/><path fill="#ffffff" d="M 15.832031 12.273438 C 16.148438 12.355469 16.464844 12.453125 16.773438 12.558594 C 16.925781 12.613281 17.078125 12.667969 17.226562 12.726562 C 17.304688 12.753906 17.378906 12.785156 17.453125 12.816406 C 17.523438 12.84375 17.59375 12.882812 17.671875 12.882812 C 17.6875 12.882812 17.695312 12.863281 17.683594 12.851562 C 17.632812 12.800781 17.566406 12.78125 17.503906 12.757812 C 17.425781 12.722656 17.34375 12.691406 17.261719 12.660156 C 17.113281 12.601562 16.960938 12.550781 16.808594 12.496094 C 16.492188 12.390625 16.171875 12.296875 15.847656 12.214844 C 15.808594 12.207031 15.792969 12.261719 15.832031 12.273438 Z M 15.832031 12.273438 " fill-opacity="1" fill-rule="nonzero"/><path fill="#ffffff" d="M 16.183594 11.921875 C 16.382812 11.957031 16.582031 11.996094 16.78125 12.035156 L 17.082031 12.089844 C 17.171875 12.109375 17.277344 12.140625 17.367188 12.132812 C 17.386719 12.132812 17.402344 12.101562 17.378906 12.089844 C 17.292969 12.050781 17.191406 12.042969 17.097656 12.027344 C 16.996094 12.007812 16.898438 11.992188 16.796875 11.972656 L 16.195312 11.867188 C 16.164062 11.863281 16.148438 11.914062 16.183594 11.917969 Z M 16.183594 11.921875 " fill-opacity="1" fill-rule="nonzero"/><path fill="#ffffff" d="M 16.800781 11.222656 C 16.832031 11.222656 16.832031 11.175781 16.800781 11.175781 C 16.769531 11.175781 16.769531 11.222656 16.800781 11.222656 Z M 16.800781 11.222656 " fill-opacity="1" fill-rule="nonzero"/><path fill="#ffffff" d="M 15.402344 10.835938 C 16.054688 10.902344 16.710938 10.984375 17.367188 11.015625 C 17.386719 11.015625 17.390625 10.984375 17.371094 10.980469 C 16.71875 10.886719 16.058594 10.847656 15.402344 10.789062 C 15.375 10.789062 15.375 10.832031 15.402344 10.835938 Z M 15.402344 10.835938 " fill-opacity="1" fill-rule="nonzero"/><path fill="#ffffff" d="M 15.875 10.175781 C 16.46875 10.3125 17.117188 10.386719 17.722656 10.296875 C 17.738281 10.296875 17.734375 10.269531 17.714844 10.269531 C 17.414062 10.269531 17.113281 10.285156 16.8125 10.261719 C 16.511719 10.242188 16.191406 10.195312 15.890625 10.128906 C 15.859375 10.121094 15.84375 10.167969 15.875 10.175781 Z M 15.875 10.175781 " fill-opacity="1" fill-rule="nonzero"/><path fill="#ffffff" d="M 15.707031 9.382812 C 16.152344 9.421875 16.59375 9.457031 17.039062 9.496094 C 17.257812 9.511719 17.472656 9.53125 17.691406 9.546875 C 17.910156 9.566406 18.148438 9.609375 18.371094 9.589844 C 18.390625 9.589844 18.394531 9.558594 18.375 9.554688 C 18.171875 9.507812 17.949219 9.507812 17.742188 9.496094 C 17.515625 9.476562 17.292969 9.460938 17.066406 9.445312 C 16.613281 9.410156 16.160156 9.378906 15.707031 9.347656 C 15.683594 9.347656 15.6875 9.382812 15.707031 9.382812 Z M 15.707031 9.382812 " fill-opacity="1" fill-rule="nonzero"/><path fill="#ffffff" d="M 15.273438 8.804688 C 15.746094 8.855469 16.21875 8.902344 16.691406 8.949219 C 17.160156 8.996094 17.640625 9.070312 18.113281 9.070312 C 18.132812 9.070312 18.136719 9.039062 18.117188 9.035156 C 17.660156 8.949219 17.183594 8.933594 16.722656 8.890625 C 16.238281 8.847656 15.757812 8.804688 15.273438 8.765625 C 15.25 8.765625 15.25 8.804688 15.273438 8.804688 Z M 15.273438 8.804688 " fill-opacity="1" fill-rule="nonzero"/><path fill="#ffffff" d="M 15.359375 8.144531 C 15.761719 8.1875 16.160156 8.226562 16.5625 8.269531 C 16.960938 8.308594 17.363281 8.378906 17.761719 8.375 C 17.78125 8.375 17.789062 8.339844 17.765625 8.335938 C 17.382812 8.253906 16.976562 8.246094 16.585938 8.210938 C 16.195312 8.175781 15.769531 8.136719 15.363281 8.101562 C 15.335938 8.097656 15.335938 8.140625 15.363281 8.144531 Z M 15.359375 8.144531 " fill-opacity="1" fill-rule="nonzero"/><path fill="#ffffff" d="M 15.445312 7.375 C 15.730469 7.394531 16.011719 7.410156 16.292969 7.425781 C 16.433594 7.4375 16.574219 7.441406 16.714844 7.449219 C 16.839844 7.457031 16.988281 7.488281 17.109375 7.453125 C 17.132812 7.449219 17.128906 7.425781 17.109375 7.417969 C 16.992188 7.375 16.839844 7.386719 16.714844 7.382812 C 16.574219 7.375 16.433594 7.367188 16.292969 7.359375 C 16.011719 7.347656 15.730469 7.335938 15.445312 7.324219 C 15.414062 7.320312 15.414062 7.371094 15.445312 7.375 Z M 15.445312 7.375 " fill-opacity="1" fill-rule="nonzero"/><path fill="#ffffff" d="M 15.53125 6.816406 C 15.6875 6.816406 15.84375 6.820312 16 6.820312 C 16.078125 6.820312 16.15625 6.824219 16.234375 6.824219 C 16.3125 6.824219 16.382812 6.828125 16.457031 6.8125 C 16.476562 6.804688 16.476562 6.773438 16.457031 6.769531 C 16.382812 6.75 16.308594 6.757812 16.234375 6.757812 C 16.15625 6.757812 16.078125 6.757812 16 6.757812 C 15.84375 6.761719 15.6875 6.761719 15.53125 6.765625 C 15.5 6.765625 15.5 6.816406 15.53125 6.816406 Z M 15.53125 6.816406 " fill-opacity="1" fill-rule="nonzero"/><path fill="#ffffff" d="M 15.367188 6.125 C 15.398438 6.117188 15.429688 6.109375 15.457031 6.101562 C 15.484375 6.089844 15.515625 6.082031 15.542969 6.070312 C 15.554688 6.0625 15.546875 6.042969 15.535156 6.042969 C 15.503906 6.046875 15.476562 6.050781 15.445312 6.054688 C 15.414062 6.058594 15.382812 6.066406 15.355469 6.074219 C 15.339844 6.078125 15.332031 6.09375 15.335938 6.105469 C 15.339844 6.121094 15.355469 6.128906 15.367188 6.125 Z M 15.367188 6.125 " fill-opacity="1" fill-rule="nonzero"/><path fill="#ffffff" d="M 15.183594 5.328125 C 15.214844 5.328125 15.214844 5.28125 15.183594 5.28125 C 15.152344 5.28125 15.152344 5.328125 15.183594 5.328125 Z M 15.183594 5.328125 " fill-opacity="1" fill-rule="nonzero"/><path fill="#ffffff" d="M 4.390625 10.171875 L 4.613281 10.214844 C 4.6875 10.230469 4.757812 10.246094 4.832031 10.253906 C 4.847656 10.253906 4.851562 10.230469 4.835938 10.226562 C 4.765625 10.203125 4.691406 10.191406 4.621094 10.179688 C 4.546875 10.164062 4.476562 10.148438 4.402344 10.132812 C 4.378906 10.128906 4.367188 10.167969 4.390625 10.171875 Z M 4.390625 10.171875 " fill-opacity="1" fill-rule="nonzero"/><path fill="#ffffff" d="M 3.695312 9.210938 C 4.230469 9.339844 4.769531 9.484375 5.3125 9.597656 C 5.324219 9.597656 5.328125 9.582031 5.316406 9.578125 C 4.785156 9.425781 4.242188 9.3125 3.703125 9.179688 C 3.683594 9.175781 3.675781 9.207031 3.695312 9.210938 Z M 3.695312 9.210938 " fill-opacity="1" fill-rule="nonzero"/><path fill="#ffffff" d="M 3.179688 8.214844 C 3.742188 8.371094 4.308594 8.519531 4.875 8.667969 C 5.441406 8.816406 6.007812 8.988281 6.582031 9.097656 C 6.601562 9.105469 6.609375 9.074219 6.589844 9.066406 C 6.035156 8.886719 5.457031 8.761719 4.890625 8.613281 C 4.324219 8.464844 3.757812 8.320312 3.1875 8.179688 C 3.164062 8.175781 3.15625 8.210938 3.175781 8.214844 Z M 3.179688 8.214844 " fill-opacity="1" fill-rule="nonzero"/><path fill="#ffffff" d="M 3.21875 7.09375 C 3.820312 7.273438 4.421875 7.445312 5.023438 7.621094 C 5.625 7.792969 6.226562 7.992188 6.835938 8.125 C 6.867188 8.132812 6.878906 8.089844 6.851562 8.078125 C 6.261719 7.871094 5.644531 7.722656 5.042969 7.554688 C 4.441406 7.386719 3.835938 7.214844 3.230469 7.046875 C 3.203125 7.039062 3.1875 7.085938 3.21875 7.097656 Z M 3.21875 7.09375 " fill-opacity="1" fill-rule="nonzero"/><path fill="#ffffff" d="M 3.917969 6.257812 C 4.488281 6.378906 5.058594 6.511719 5.625 6.65625 C 6.191406 6.804688 6.746094 6.988281 7.3125 7.132812 C 7.339844 7.140625 7.351562 7.101562 7.324219 7.089844 C 6.78125 6.878906 6.207031 6.734375 5.644531 6.589844 C 5.078125 6.449219 4.503906 6.324219 3.929688 6.21875 C 3.902344 6.214844 3.890625 6.253906 3.917969 6.257812 Z M 3.917969 6.257812 " fill-opacity="1" fill-rule="nonzero"/><path fill="#ffffff" d="M 5.707031 5.804688 C 6.316406 5.824219 6.882812 5.980469 7.445312 6.203125 C 7.464844 6.214844 7.480469 6.179688 7.460938 6.167969 C 6.925781 5.886719 6.304688 5.765625 5.707031 5.75 C 5.675781 5.75 5.675781 5.804688 5.707031 5.804688 Z M 5.707031 5.804688 " fill-opacity="1" fill-rule="nonzero"/><path fill="#ffffff" d="M 7.273438 5.417969 C 7.375 5.449219 7.476562 5.476562 7.578125 5.507812 C 7.679688 5.535156 7.78125 5.566406 7.886719 5.585938 C 7.90625 5.589844 7.921875 5.558594 7.898438 5.550781 C 7.800781 5.507812 7.699219 5.484375 7.597656 5.453125 C 7.496094 5.425781 7.390625 5.394531 7.285156 5.367188 C 7.253906 5.355469 7.238281 5.410156 7.273438 5.417969 Z M 7.273438 5.417969 " fill-opacity="1" fill-rule="nonzero"/><path fill="#ffffff" d="M 8.71875 5.070312 C 8.753906 5.070312 8.753906 5.015625 8.71875 5.015625 C 8.6875 5.015625 8.6875 5.070312 8.71875 5.070312 Z M 8.71875 5.070312 " fill-opacity="1" fill-rule="nonzero"/><path fill="#ffffff" d="M 11.511719 5.273438 C 11.992188 5.390625 12.472656 5.523438 12.953125 5.617188 C 12.972656 5.621094 12.980469 5.597656 12.960938 5.589844 C 12.488281 5.457031 12.003906 5.351562 11.523438 5.234375 C 11.496094 5.226562 11.488281 5.269531 11.511719 5.273438 Z M 11.511719 5.273438 " fill-opacity="1" fill-rule="nonzero"/><path fill="#ffffff" d="M 11.246094 4.324219 C 11.855469 4.445312 12.457031 4.585938 13.054688 4.746094 C 13.652344 4.902344 14.234375 5.109375 14.832031 5.269531 C 14.851562 5.277344 14.859375 5.25 14.839844 5.242188 C 14.269531 5.011719 13.660156 4.855469 13.066406 4.699219 C 12.46875 4.539062 11.867188 4.402344 11.257812 4.285156 C 11.230469 4.28125 11.222656 4.320312 11.246094 4.324219 Z M 11.246094 4.324219 " fill-opacity="1" fill-rule="nonzero"/><path fill="#ffffff" d="M 11.773438 3.648438 C 12.320312 3.734375 12.863281 3.839844 13.402344 3.972656 C 13.941406 4.101562 14.464844 4.277344 15 4.421875 C 15.015625 4.425781 15.027344 4.398438 15.011719 4.394531 C 14.503906 4.175781 13.953125 4.039062 13.417969 3.910156 C 12.878906 3.78125 12.332031 3.679688 11.78125 3.609375 C 11.757812 3.605469 11.753906 3.644531 11.773438 3.648438 Z M 11.773438 3.648438 " fill-opacity="1" fill-rule="nonzero"/><path fill="#ffffff" d="M 13.125 3.144531 C 13.390625 3.203125 13.65625 3.265625 13.925781 3.328125 C 14.054688 3.359375 14.1875 3.386719 14.316406 3.417969 C 14.449219 3.449219 14.574219 3.484375 14.703125 3.488281 C 14.726562 3.488281 14.726562 3.457031 14.710938 3.449219 C 14.585938 3.398438 14.449219 3.378906 14.320312 3.351562 C 14.1875 3.320312 14.058594 3.292969 13.925781 3.265625 L 13.140625 3.09375 C 13.105469 3.089844 13.09375 3.136719 13.125 3.144531 Z M 13.125 3.144531 " fill-opacity="1" fill-rule="nonzero"/><path fill="#ffffff" d="M 13.828125 2.671875 C 13.925781 2.679688 14.023438 2.6875 14.117188 2.699219 C 14.214844 2.707031 14.308594 2.71875 14.402344 2.707031 C 14.414062 2.703125 14.414062 2.683594 14.402344 2.679688 C 14.308594 2.652344 14.214844 2.648438 14.117188 2.640625 L 13.828125 2.621094 C 13.796875 2.617188 13.796875 2.671875 13.828125 2.671875 Z M 13.828125 2.671875 " fill-opacity="1" fill-rule="nonzero"/><path fill="#ffffff" d="M 14.398438 2.140625 C 14.429688 2.140625 14.429688 2.089844 14.398438 2.089844 C 14.363281 2.089844 14.363281 2.140625 14.398438 2.140625 Z M 14.398438 2.140625 " fill-opacity="1" fill-rule="nonzero"/><path fill="#ffffff" d="M 7.011719 17.949219 C 7.160156 17.992188 7.316406 18.023438 7.472656 18.039062 C 7.628906 18.054688 7.789062 18.0625 7.941406 18.027344 C 7.957031 18.023438 7.953125 17.996094 7.933594 17.996094 C 7.785156 17.988281 7.632812 18 7.480469 17.984375 C 7.328125 17.972656 7.175781 17.941406 7.023438 17.898438 C 6.992188 17.890625 6.980469 17.941406 7.011719 17.949219 Z M 7.011719 17.949219 " fill-opacity="1" fill-rule="nonzero"/><path fill="#ffffff" d="M 6.707031 17.160156 C 7.503906 17.378906 8.332031 17.546875 9.15625 17.59375 C 9.183594 17.597656 9.179688 17.5625 9.15625 17.558594 C 8.335938 17.453125 7.523438 17.328125 6.71875 17.117188 C 6.691406 17.113281 6.679688 17.152344 6.707031 17.160156 Z M 6.707031 17.160156 " fill-opacity="1" fill-rule="nonzero"/><path fill="#ffffff" d="M 6.625 16.28125 C 7.203125 16.328125 7.777344 16.410156 8.34375 16.523438 C 8.898438 16.636719 9.433594 16.808594 9.984375 16.941406 C 10.003906 16.945312 10.011719 16.917969 9.992188 16.910156 C 9.457031 16.699219 8.867188 16.582031 8.304688 16.472656 C 7.75 16.367188 7.191406 16.289062 6.625 16.242188 C 6.601562 16.242188 6.601562 16.277344 6.625 16.28125 Z M 6.625 16.28125 " fill-opacity="1" fill-rule="nonzero"/><path fill="#ffffff" d="M 6.40625 15.328125 C 6.71875 15.332031 7.03125 15.359375 7.339844 15.40625 C 7.492188 15.429688 7.640625 15.453125 7.789062 15.484375 C 7.9375 15.519531 8.085938 15.5625 8.234375 15.585938 C 8.261719 15.589844 8.269531 15.558594 8.246094 15.550781 C 7.957031 15.4375 7.625 15.390625 7.320312 15.351562 C 7.015625 15.308594 6.710938 15.289062 6.40625 15.285156 C 6.378906 15.285156 6.378906 15.328125 6.40625 15.328125 Z M 6.40625 15.328125 " fill-opacity="1" fill-rule="nonzero"/><path fill="#ffffff" d="M 6.328125 14.625 C 6.429688 14.582031 6.535156 14.539062 6.628906 14.484375 C 6.644531 14.480469 6.636719 14.460938 6.621094 14.464844 C 6.515625 14.496094 6.414062 14.542969 6.308594 14.589844 C 6.296875 14.59375 6.296875 14.609375 6.300781 14.617188 C 6.308594 14.628906 6.320312 14.628906 6.328125 14.625 Z M 6.328125 14.625 " fill-opacity="1" fill-rule="nonzero"/><path fill="#ffffff" d="M 6.71875 14.238281 C 6.679688 14.222656 6.644531 14.207031 6.609375 14.195312 C 6.589844 14.1875 6.574219 14.179688 6.558594 14.171875 C 6.546875 14.171875 6.539062 14.164062 6.527344 14.164062 C 6.519531 14.160156 6.507812 14.160156 6.496094 14.15625 C 6.484375 14.15625 6.472656 14.171875 6.488281 14.183594 C 6.496094 14.1875 6.503906 14.195312 6.511719 14.199219 C 6.519531 14.203125 6.53125 14.207031 6.542969 14.210938 C 6.558594 14.21875 6.578125 14.226562 6.59375 14.230469 L 6.707031 14.273438 C 6.71875 14.277344 6.726562 14.269531 6.730469 14.261719 C 6.734375 14.25 6.726562 14.242188 6.71875 14.238281 Z M 6.71875 14.238281 " fill-opacity="1" fill-rule="nonzero"/><path fill="#ffffff" d="M 14.917969 20.601562 L 15.105469 20.71875 C 15.167969 20.757812 15.230469 20.804688 15.296875 20.835938 C 15.304688 20.839844 15.3125 20.832031 15.304688 20.824219 C 15.25 20.78125 15.183594 20.742188 15.121094 20.703125 C 15.058594 20.664062 14.992188 20.625 14.925781 20.585938 C 14.917969 20.578125 14.90625 20.59375 14.917969 20.601562 Z M 14.917969 20.601562 " fill-opacity="1" fill-rule="nonzero"/><path fill="#ffffff" d="M 15 19.519531 C 15.121094 19.613281 15.242188 19.710938 15.359375 19.808594 C 15.480469 19.902344 15.59375 20 15.71875 20.085938 C 15.734375 20.097656 15.753906 20.074219 15.738281 20.058594 C 15.628906 19.957031 15.507812 19.867188 15.386719 19.769531 C 15.269531 19.675781 15.152344 19.582031 15.03125 19.484375 C 15.007812 19.464844 14.976562 19.5 15 19.519531 Z M 15 19.519531 " fill-opacity="1" fill-rule="nonzero"/><path fill="#ffffff" d="M 15.003906 18.753906 C 15.199219 18.929688 15.398438 19.105469 15.59375 19.28125 C 15.789062 19.457031 15.984375 19.632812 16.191406 19.796875 C 16.207031 19.8125 16.230469 19.789062 16.214844 19.773438 C 16.027344 19.59375 15.824219 19.421875 15.625 19.25 C 15.429688 19.074219 15.226562 18.902344 15.03125 18.730469 C 15.011719 18.710938 14.984375 18.742188 15.003906 18.757812 Z M 15.003906 18.753906 " fill-opacity="1" fill-rule="nonzero"/><path fill="#ffffff" d="M 15.203125 18.039062 C 15.484375 18.257812 15.769531 18.472656 16.050781 18.6875 C 16.335938 18.902344 16.613281 19.125 16.910156 19.316406 C 16.925781 19.328125 16.941406 19.304688 16.929688 19.296875 C 16.664062 19.066406 16.375 18.863281 16.09375 18.652344 C 15.804688 18.4375 15.511719 18.222656 15.222656 18.007812 C 15.203125 17.992188 15.183594 18.027344 15.203125 18.042969 Z M 15.203125 18.039062 " fill-opacity="1" fill-rule="nonzero"/><path fill="#ffffff" d="M 15.335938 16.808594 C 15.652344 17.125 15.988281 17.421875 16.339844 17.695312 C 16.691406 17.96875 17.035156 18.238281 17.421875 18.433594 C 17.449219 18.445312 17.472656 18.410156 17.445312 18.390625 C 17.09375 18.128906 16.71875 17.902344 16.367188 17.632812 C 16.019531 17.363281 15.6875 17.078125 15.367188 16.773438 C 15.347656 16.753906 15.308594 16.785156 15.332031 16.808594 Z M 15.335938 16.808594 " fill-opacity="1" fill-rule="nonzero"/><path fill="#ffffff" d="M 15.675781 16 C 16.121094 16.339844 16.570312 16.675781 17.019531 17.011719 C 17.464844 17.34375 17.902344 17.710938 18.375 18.003906 C 18.390625 18.015625 18.414062 17.988281 18.394531 17.976562 C 17.984375 17.609375 17.511719 17.304688 17.070312 16.976562 C 16.628906 16.648438 16.15625 16.300781 15.695312 15.964844 C 15.675781 15.949219 15.652344 15.984375 15.675781 16 Z M 15.675781 16 " fill-opacity="1" fill-rule="nonzero"/><path fill="#ffffff" d="M 16.578125 15.382812 C 17.097656 15.683594 17.597656 16.019531 18.070312 16.386719 C 18.292969 16.5625 18.511719 16.746094 18.722656 16.933594 C 18.949219 17.136719 19.15625 17.355469 19.386719 17.550781 C 19.40625 17.5625 19.425781 17.542969 19.414062 17.523438 C 19.054688 17.070312 18.566406 16.6875 18.109375 16.335938 C 17.632812 15.964844 17.128906 15.636719 16.601562 15.339844 C 16.574219 15.324219 16.550781 15.367188 16.574219 15.382812 Z M 16.578125 15.382812 " fill-opacity="1" fill-rule="nonzero"/><path fill="#ffffff" d="M 17.570312 14.910156 C 17.871094 15.078125 18.160156 15.261719 18.441406 15.457031 C 18.582031 15.550781 18.71875 15.652344 18.851562 15.753906 C 18.988281 15.859375 19.117188 15.980469 19.265625 16.066406 C 19.285156 16.078125 19.296875 16.054688 19.285156 16.042969 C 19.179688 15.917969 19.035156 15.816406 18.90625 15.71875 C 18.769531 15.613281 18.628906 15.511719 18.484375 15.410156 C 18.199219 15.214844 17.902344 15.035156 17.597656 14.867188 C 17.566406 14.851562 17.542969 14.894531 17.570312 14.910156 Z M 17.570312 14.910156 " fill-opacity="1" fill-rule="nonzero"/><path fill="#ffffff" d="M 18.429688 14.722656 L 18.644531 14.792969 C 18.714844 14.816406 18.785156 14.84375 18.859375 14.859375 C 18.878906 14.859375 18.894531 14.832031 18.871094 14.824219 C 18.804688 14.789062 18.730469 14.769531 18.660156 14.746094 C 18.589844 14.722656 18.515625 14.699219 18.441406 14.675781 C 18.414062 14.667969 18.398438 14.710938 18.429688 14.722656 Z M 18.429688 14.722656 " fill-opacity="1" fill-rule="nonzero"/><path fill="#ffffff" d="M 13.628906 25.542969 C 13.757812 25.6875 13.90625 25.816406 14.070312 25.925781 C 14.152344 25.980469 14.234375 26.027344 14.324219 26.070312 C 14.40625 26.109375 14.5 26.160156 14.589844 26.164062 C 14.605469 26.164062 14.605469 26.144531 14.597656 26.136719 C 14.5625 26.113281 14.519531 26.101562 14.480469 26.085938 C 14.433594 26.066406 14.386719 26.046875 14.34375 26.023438 C 14.257812 25.984375 14.171875 25.9375 14.09375 25.886719 C 13.933594 25.78125 13.785156 25.65625 13.660156 25.511719 C 13.640625 25.492188 13.609375 25.523438 13.628906 25.542969 Z M 13.628906 25.542969 " fill-opacity="1" fill-rule="nonzero"/><path fill="#ffffff" d="M 13.785156 24.570312 C 14.070312 24.792969 14.355469 25.019531 14.636719 25.242188 C 14.777344 25.351562 14.917969 25.460938 15.058594 25.570312 C 15.195312 25.675781 15.332031 25.789062 15.480469 25.882812 C 15.496094 25.890625 15.511719 25.871094 15.5 25.855469 C 15.371094 25.730469 15.226562 25.628906 15.085938 25.519531 C 14.945312 25.414062 14.796875 25.296875 14.652344 25.183594 C 14.371094 24.96875 14.09375 24.753906 13.8125 24.539062 C 13.792969 24.527344 13.769531 24.558594 13.789062 24.570312 Z M 13.785156 24.570312 " fill-opacity="1" fill-rule="nonzero"/><path fill="#ffffff" d="M 14.105469 24.125 C 14.292969 24.242188 14.484375 24.363281 14.671875 24.480469 C 14.859375 24.601562 15.050781 24.726562 15.242188 24.835938 C 15.265625 24.84375 15.28125 24.816406 15.261719 24.804688 C 15.078125 24.675781 14.886719 24.5625 14.695312 24.445312 C 14.503906 24.328125 14.3125 24.210938 14.125 24.09375 C 14.101562 24.078125 14.085938 24.109375 14.105469 24.125 Z M 14.105469 24.125 " fill-opacity="1" fill-rule="nonzero"/><path fill="#ffffff" d="M 14.535156 23.507812 C 14.664062 23.554688 14.789062 23.609375 14.917969 23.644531 C 14.933594 23.648438 14.945312 23.625 14.929688 23.617188 C 14.808594 23.554688 14.675781 23.515625 14.546875 23.464844 C 14.519531 23.457031 14.511719 23.5 14.535156 23.507812 Z M 14.535156 23.507812 " fill-opacity="1" fill-rule="nonzero"/><path fill="#ffffff" d="M 19.324219 26.015625 C 19.457031 26.140625 19.609375 26.25 19.773438 26.332031 C 19.9375 26.410156 20.109375 26.476562 20.285156 26.496094 C 20.304688 26.496094 20.308594 26.464844 20.289062 26.460938 C 20.117188 26.414062 19.949219 26.371094 19.785156 26.292969 C 19.625 26.210938 19.480469 26.109375 19.347656 25.988281 C 19.332031 25.972656 19.304688 26 19.324219 26.015625 Z M 19.324219 26.015625 " fill-opacity="1" fill-rule="nonzero"/><path fill="#ffffff" d="M 19.902344 25.582031 C 20.46875 25.996094 21.027344 26.425781 21.609375 26.816406 C 21.621094 26.824219 21.636719 26.804688 21.625 26.796875 C 21.074219 26.359375 20.492188 25.960938 19.921875 25.550781 C 19.902344 25.535156 19.882812 25.566406 19.902344 25.582031 Z M 19.902344 25.582031 " fill-opacity="1" fill-rule="nonzero"/><path fill="#ffffff" d="M 20.75 25.070312 C 21.617188 25.664062 22.421875 26.324219 23.21875 27.007812 C 23.230469 27.019531 23.25 27 23.238281 26.988281 C 22.480469 26.265625 21.628906 25.628906 20.765625 25.042969 C 20.746094 25.027344 20.730469 25.058594 20.75 25.070312 Z M 20.75 25.070312 " fill-opacity="1" fill-rule="nonzero"/><path fill="#ffffff" d="M 22.121094 24.980469 C 22.546875 25.261719 22.953125 25.578125 23.328125 25.921875 C 23.699219 26.257812 24.03125 26.628906 24.359375 27.003906 C 24.371094 27.019531 24.394531 27 24.382812 26.988281 C 23.773438 26.1875 22.980469 25.503906 22.140625 24.945312 C 22.121094 24.929688 22.101562 24.964844 22.121094 24.980469 Z M 22.121094 24.980469 " fill-opacity="1" fill-rule="nonzero"/><path fill="#ffffff" d="M 23.441406 24.601562 C 23.769531 24.90625 24.097656 25.210938 24.425781 25.519531 C 24.585938 25.667969 24.742188 25.816406 24.902344 25.964844 C 24.988281 26.042969 25.074219 26.121094 25.15625 26.199219 C 25.230469 26.269531 25.304688 26.351562 25.394531 26.402344 C 25.40625 26.410156 25.425781 26.394531 25.417969 26.378906 C 25.359375 26.300781 25.28125 26.238281 25.210938 26.171875 C 25.128906 26.09375 25.042969 26.015625 24.957031 25.9375 C 24.792969 25.785156 24.628906 25.632812 24.460938 25.480469 C 24.132812 25.175781 23.804688 24.871094 23.472656 24.570312 C 23.453125 24.550781 23.421875 24.582031 23.441406 24.597656 Z M 23.441406 24.601562 " fill-opacity="1" fill-rule="nonzero"/><path fill="#ffffff" d="M 24.488281 24.171875 C 24.648438 24.378906 24.828125 24.566406 25.023438 24.742188 C 25.113281 24.824219 25.210938 24.898438 25.3125 24.972656 C 25.414062 25.046875 25.519531 25.132812 25.640625 25.171875 C 25.660156 25.175781 25.671875 25.152344 25.660156 25.140625 C 25.574219 25.054688 25.460938 24.996094 25.363281 24.925781 C 25.257812 24.847656 25.15625 24.769531 25.054688 24.679688 C 24.863281 24.515625 24.6875 24.332031 24.527344 24.132812 C 24.507812 24.105469 24.46875 24.144531 24.492188 24.171875 Z M 24.488281 24.171875 " fill-opacity="1" fill-rule="nonzero"/><path fill="#ffffff" d="M 25.304688 23.902344 C 25.398438 23.9375 25.492188 23.972656 25.589844 23.992188 C 25.605469 23.996094 25.617188 23.972656 25.601562 23.964844 C 25.511719 23.917969 25.414062 23.886719 25.316406 23.855469 C 25.285156 23.84375 25.273438 23.890625 25.304688 23.902344 Z M 25.304688 23.902344 " fill-opacity="1" fill-rule="nonzero"/><path fill="#ffffff" d="M 25.550781 23.359375 C 25.574219 23.359375 25.601562 23.359375 25.625 23.359375 C 25.648438 23.359375 25.671875 23.359375 25.695312 23.355469 C 25.707031 23.355469 25.707031 23.335938 25.695312 23.335938 C 25.671875 23.332031 25.648438 23.332031 25.625 23.332031 C 25.601562 23.332031 25.574219 23.332031 25.550781 23.332031 C 25.53125 23.332031 25.53125 23.359375 25.550781 23.359375 Z M 25.550781 23.359375 " fill-opacity="1" fill-rule="nonzero"/><path fill="#ffffff" d="M 22.410156 18.375 C 22.582031 18.53125 22.753906 18.695312 22.9375 18.84375 C 22.945312 18.851562 22.957031 18.839844 22.949219 18.832031 C 22.785156 18.664062 22.605469 18.507812 22.429688 18.351562 C 22.414062 18.335938 22.394531 18.359375 22.410156 18.375 Z M 22.410156 18.375 " fill-opacity="1" fill-rule="nonzero"/><path fill="#ffffff" d="M 22.742188 17.574219 C 23.136719 17.875 23.527344 18.183594 23.929688 18.472656 C 23.941406 18.480469 23.953125 18.460938 23.945312 18.453125 C 23.558594 18.140625 23.152344 17.847656 22.757812 17.546875 C 22.742188 17.535156 22.726562 17.5625 22.742188 17.574219 Z M 22.742188 17.574219 " fill-opacity="1" fill-rule="nonzero"/><path fill="#ffffff" d="M 22.175781 16.046875 C 22.699219 16.320312 23.207031 16.628906 23.6875 16.964844 C 24.1875 17.3125 24.644531 17.703125 25.105469 18.097656 C 25.125 18.113281 25.15625 18.085938 25.136719 18.066406 C 24.289062 17.230469 23.25 16.554688 22.191406 16.019531 C 22.175781 16.011719 22.160156 16.039062 22.175781 16.046875 Z M 22.175781 16.046875 " fill-opacity="1" fill-rule="nonzero"/><path fill="#ffffff" d="M 22.675781 15.164062 C 23.222656 15.582031 23.777344 16 24.328125 16.417969 C 24.601562 16.621094 24.871094 16.828125 25.144531 17.035156 C 25.425781 17.242188 25.695312 17.464844 25.992188 17.65625 C 26.007812 17.667969 26.027344 17.640625 26.011719 17.625 C 25.761719 17.40625 25.484375 17.214844 25.21875 17.015625 C 24.9375 16.804688 24.660156 16.597656 24.378906 16.386719 C 23.816406 15.96875 23.253906 15.546875 22.691406 15.132812 C 22.671875 15.117188 22.65625 15.148438 22.671875 15.164062 Z M 22.675781 15.164062 " fill-opacity="1" fill-rule="nonzero"/><path fill="#ffffff" d="M 24.222656 15.46875 C 24.542969 15.695312 24.867188 15.921875 25.1875 16.148438 C 25.511719 16.371094 25.824219 16.613281 26.164062 16.808594 C 26.179688 16.820312 26.203125 16.792969 26.183594 16.78125 C 25.886719 16.535156 25.550781 16.328125 25.234375 16.109375 C 24.914062 15.890625 24.574219 15.65625 24.246094 15.433594 C 24.222656 15.417969 24.203125 15.453125 24.222656 15.46875 Z M 24.222656 15.46875 " fill-opacity="1" fill-rule="nonzero"/><path fill="#ffffff" d="M 25.492188 15.535156 C 25.839844 15.757812 26.183594 15.992188 26.542969 16.1875 C 26.5625 16.199219 26.578125 16.171875 26.558594 16.160156 C 26.226562 15.917969 25.871094 15.707031 25.523438 15.484375 C 25.492188 15.464844 25.464844 15.515625 25.492188 15.535156 Z M 25.492188 15.535156 " fill-opacity="1" fill-rule="nonzero"/><path fill="#ffffff" d="M 26.820312 15.539062 L 27.058594 15.703125 C 27.136719 15.757812 27.214844 15.816406 27.296875 15.863281 C 27.316406 15.875 27.335938 15.847656 27.320312 15.835938 C 27.246094 15.769531 27.167969 15.71875 27.085938 15.660156 C 27.007812 15.605469 26.925781 15.546875 26.847656 15.492188 C 26.816406 15.476562 26.792969 15.519531 26.820312 15.539062 Z M 26.820312 15.539062 " fill-opacity="1" fill-rule="nonzero"/><path fill="#ffffff" d="M 27.546875 15.761719 C 27.558594 15.761719 27.558594 15.742188 27.546875 15.742188 C 27.53125 15.742188 27.53125 15.761719 27.546875 15.761719 Z M 27.546875 15.761719 " fill-opacity="1" fill-rule="nonzero"/></svg>