<svg xmlns="http://www.w3.org/2000/svg" xmlns:xlink="http://www.w3.org/1999/xlink" width="40" zoomAndPan="magnify" viewBox="0 0 30 30.000001" height="40" preserveAspectRatio="xMidYMid meet" version="1.0"><defs><clipPath id="483d139cb1"><path d="M 0.484375 11 L 29.515625 11 L 29.515625 29.03125 L 0.484375 29.03125 Z M 0.484375 11 " clip-rule="nonzero"/></clipPath></defs><g clip-path="url(#483d139cb1)"><path fill="#ffffff" d="M 29.308594 28.613281 L 28.347656 28.613281 L 27.898438 27.679688 C 27.660156 27.191406 27.15625 26.871094 26.609375 26.871094 L 24.628906 26.871094 C 28.746094 25.296875 28.203125 15.390625 23.121094 18.578125 C 22.777344 18.792969 22.347656 18.792969 22.003906 18.578125 C 16.921875 15.390625 16.378906 25.296875 20.496094 26.871094 L 18.890625 26.871094 C 18.476562 26.871094 18.082031 26.75 17.746094 26.515625 L 17.25 26.171875 C 16.84375 25.886719 16.367188 25.738281 15.871094 25.738281 L 5.402344 25.738281 C 6.578125 23.378906 7.386719 18.144531 7.539062 11.875 C 7.542969 11.761719 7.449219 11.664062 7.335938 11.664062 C 7.21875 11.660156 7.125 11.75 7.121094 11.867188 C 6.96875 18.257812 6.132812 23.546875 4.933594 25.738281 L 3.539062 25.738281 C 2.90625 25.738281 2.34375 26.160156 2.164062 26.769531 L 1.917969 27.617188 C 1.886719 27.730469 1.949219 27.84375 2.058594 27.878906 C 2.167969 27.910156 2.285156 27.847656 2.316406 27.734375 L 2.566406 26.886719 C 2.691406 26.457031 3.089844 26.15625 3.539062 26.15625 L 15.871094 26.15625 C 16.28125 26.15625 16.675781 26.28125 17.011719 26.515625 L 17.507812 26.855469 C 17.914062 27.140625 18.394531 27.289062 18.890625 27.289062 L 26.609375 27.289062 C 26.996094 27.289062 27.355469 27.515625 27.523438 27.863281 L 27.886719 28.613281 L 0.691406 28.613281 C 0.578125 28.613281 0.484375 28.707031 0.484375 28.824219 C 0.484375 28.9375 0.578125 29.03125 0.691406 29.03125 L 29.308594 29.03125 C 29.421875 29.03125 29.515625 28.9375 29.515625 28.824219 C 29.515625 28.707031 29.421875 28.613281 29.308594 28.613281 Z M 19.5625 20.140625 C 19.265625 20.863281 19.242188 21.921875 19.507812 22.859375 C 19.539062 22.96875 19.421875 23.058594 19.328125 23 C 18.929688 22.75 18.652344 22.351562 18.5625 21.894531 C 18.511719 21.640625 18.5 21.390625 18.523438 21.144531 C 18.574219 20.621094 18.933594 20.179688 19.429688 20.003906 C 19.515625 19.972656 19.59375 20.054688 19.5625 20.140625 Z M 19.5625 20.140625 " fill-opacity="1" fill-rule="nonzero"/></g><path fill="#ffffff" d="M 20.652344 16.242188 C 21.113281 16.667969 21.710938 16.894531 22.328125 16.894531 C 22.414062 16.894531 22.503906 16.886719 22.589844 16.878906 C 22.460938 17.210938 22.367188 17.5625 22.324219 17.925781 C 22.308594 18.039062 22.390625 18.144531 22.503906 18.15625 C 22.515625 18.160156 22.523438 18.160156 22.53125 18.160156 C 22.636719 18.160156 22.726562 18.082031 22.738281 17.976562 C 22.886719 16.722656 23.699219 15.59375 24.421875 15.121094 C 24.519531 15.058594 24.546875 14.925781 24.484375 14.832031 C 24.421875 14.734375 24.292969 14.707031 24.195312 14.769531 C 23.839844 15 23.46875 15.375 23.148438 15.835938 C 23.0625 15.277344 22.796875 14.761719 22.367188 14.371094 C 21.734375 13.789062 20.859375 13.574219 20.027344 13.792969 C 19.949219 13.816406 19.886719 13.878906 19.875 13.960938 C 19.726562 14.808594 20.019531 15.664062 20.652344 16.242188 Z M 20.265625 14.167969 C 20.921875 14.039062 21.59375 14.222656 22.085938 14.675781 C 22.578125 15.125 22.816406 15.773438 22.746094 16.433594 C 22.089844 16.566406 21.421875 16.382812 20.933594 15.9375 C 20.4375 15.484375 20.195312 14.828125 20.265625 14.167969 Z M 20.265625 14.167969 " fill-opacity="1" fill-rule="nonzero"/><path fill="#ffffff" d="M 3.507812 9.929688 C 3.488281 10.050781 3.480469 10.171875 3.480469 10.292969 C 3.480469 11.601562 4.542969 12.664062 5.851562 12.664062 C 5.96875 12.664062 6.082031 12.65625 6.195312 12.640625 C 6.3125 12.625 6.390625 12.519531 6.371094 12.402344 C 6.355469 12.289062 6.25 12.210938 6.136719 12.226562 C 6.042969 12.242188 5.945312 12.25 5.851562 12.25 C 4.773438 12.25 3.894531 11.371094 3.894531 10.292969 C 3.894531 10.128906 3.917969 9.964844 3.957031 9.804688 C 4.097656 9.246094 4.472656 8.792969 4.992188 8.535156 C 5.09375 8.484375 5.136719 8.359375 5.085938 8.257812 C 5.035156 8.152344 4.910156 8.109375 4.808594 8.160156 C 4.238281 8.441406 3.8125 8.929688 3.609375 9.523438 C 2.492188 9.328125 1.671875 8.367188 1.671875 7.214844 C 1.671875 6.34375 2.15625 5.550781 2.917969 5.148438 C 3.398438 6.019531 4.328125 6.574219 5.332031 6.574219 C 5.449219 6.574219 5.542969 6.480469 5.542969 6.363281 C 5.542969 6.25 5.449219 6.15625 5.332031 6.15625 C 4.417969 6.15625 3.582031 5.617188 3.203125 4.785156 C 3.0625 4.476562 2.992188 4.152344 2.992188 3.8125 C 2.992188 2.523438 4.042969 1.472656 5.332031 1.472656 C 5.613281 1.472656 5.882812 1.519531 6.140625 1.617188 C 5.691406 2.257812 5.441406 3.027344 5.441406 3.8125 C 5.441406 3.929688 5.535156 4.023438 5.652344 4.023438 C 5.765625 4.023438 5.859375 3.929688 5.859375 3.8125 C 5.859375 3.03125 6.132812 2.265625 6.628906 1.664062 C 7.277344 0.871094 8.234375 0.417969 9.257812 0.417969 C 10.519531 0.417969 11.675781 1.121094 12.261719 2.226562 C 11.425781 2.613281 10.875 3.449219 10.875 4.386719 C 10.875 4.5 10.96875 4.59375 11.085938 4.59375 C 11.199219 4.59375 11.292969 4.5 11.292969 4.386719 C 11.292969 3.550781 11.824219 2.808594 12.613281 2.535156 C 12.820312 2.464844 13.03125 2.429688 13.25 2.429688 C 14.328125 2.429688 15.203125 3.308594 15.203125 4.386719 C 15.203125 4.53125 15.1875 4.679688 15.152344 4.824219 C 15.140625 4.886719 15.15625 4.953125 15.195312 5.003906 C 15.234375 5.050781 15.296875 5.082031 15.363281 5.078125 L 15.386719 5.078125 C 15.394531 5.078125 15.402344 5.078125 15.414062 5.078125 C 16.703125 5.078125 17.753906 6.128906 17.753906 7.417969 C 17.753906 8.417969 17.132812 9.289062 16.210938 9.621094 C 16.136719 8.167969 14.929688 7.007812 13.457031 7.007812 C 13.34375 7.007812 13.25 7.101562 13.25 7.214844 C 13.25 7.332031 13.34375 7.425781 13.457031 7.425781 C 14.75 7.425781 15.855469 8.496094 15.796875 9.890625 C 15.730469 11.132812 14.703125 12.109375 13.457031 12.109375 C 12.554688 12.109375 11.75 11.605469 11.351562 10.792969 C 11.308594 10.707031 11.210938 10.660156 11.117188 10.679688 C 11.023438 10.703125 10.957031 10.789062 10.957031 10.886719 C 11.03125 16.714844 11.675781 21.886719 12.683594 24.722656 C 12.714844 24.804688 12.792969 24.859375 12.878906 24.859375 C 12.902344 24.859375 12.925781 24.855469 12.949219 24.847656 C 13.058594 24.808594 13.117188 24.691406 13.078125 24.582031 C 12.125 21.902344 11.5 17.085938 11.386719 11.589844 C 11.902344 12.179688 12.648438 12.523438 13.457031 12.523438 C 14.875 12.523438 16.050781 11.457031 16.199219 10.0625 C 17.367188 9.71875 18.171875 8.652344 18.171875 7.417969 C 18.171875 5.960938 17.035156 4.765625 15.605469 4.667969 C 15.617188 4.574219 15.621094 4.480469 15.621094 4.386719 C 15.621094 3.078125 14.558594 2.011719 13.25 2.011719 C 13.050781 2.011719 12.851562 2.039062 12.65625 2.085938 C 12.011719 0.8125 10.695312 0 9.257812 0 C 8.164062 0 7.136719 0.460938 6.410156 1.273438 C 6.070312 1.128906 5.707031 1.054688 5.332031 1.054688 C 3.8125 1.054688 2.574219 2.292969 2.574219 3.8125 C 2.574219 4.140625 2.632812 4.460938 2.742188 4.765625 C 1.832031 5.238281 1.253906 6.179688 1.253906 7.214844 C 1.253906 8.5625 2.207031 9.691406 3.507812 9.929688 Z M 3.507812 9.929688 " fill-opacity="1" fill-rule="nonzero"/><path fill="#ffffff" d="M 14.410156 9.628906 C 14.410156 9.515625 14.316406 9.421875 14.199219 9.421875 C 14.085938 9.421875 13.992188 9.515625 13.992188 9.628906 C 13.992188 10.207031 13.519531 10.679688 12.941406 10.679688 C 12.828125 10.679688 12.734375 10.773438 12.734375 10.886719 C 12.734375 11.003906 12.828125 11.097656 12.941406 11.097656 C 13.75 11.097656 14.410156 10.4375 14.410156 9.628906 Z M 14.410156 9.628906 " fill-opacity="1" fill-rule="nonzero"/><path fill="#ffffff" d="M 9.34375 2.011719 C 9.34375 1.894531 9.25 1.804688 9.132812 1.804688 C 8.375 1.804688 7.664062 2.207031 7.273438 2.863281 C 7.214844 2.960938 7.25 3.089844 7.347656 3.148438 C 7.382812 3.167969 7.417969 3.179688 7.453125 3.179688 C 7.523438 3.179688 7.59375 3.140625 7.632812 3.074219 C 7.945312 2.546875 8.519531 2.21875 9.132812 2.21875 C 9.25 2.21875 9.34375 2.125 9.34375 2.011719 Z M 9.34375 2.011719 " fill-opacity="1" fill-rule="nonzero"/><path fill="#ffffff" d="M 8.644531 7.015625 C 8.644531 6.902344 8.550781 6.808594 8.433594 6.808594 C 7.425781 6.808594 6.605469 7.628906 6.605469 8.636719 C 6.605469 8.753906 6.699219 8.847656 6.8125 8.847656 C 6.929688 8.847656 7.023438 8.753906 7.023438 8.636719 C 7.023438 7.859375 7.65625 7.226562 8.433594 7.226562 C 8.550781 7.226562 8.644531 7.132812 8.644531 7.015625 Z M 8.644531 7.015625 " fill-opacity="1" fill-rule="nonzero"/><path fill="#ffffff" d="M 10.65625 5.890625 C 11.292969 5.890625 11.8125 6.410156 11.8125 7.046875 C 11.8125 7.160156 11.90625 7.253906 12.023438 7.253906 C 12.136719 7.253906 12.230469 7.160156 12.230469 7.046875 C 12.230469 6.179688 11.523438 5.472656 10.65625 5.472656 C 10.542969 5.472656 10.449219 5.566406 10.449219 5.683594 C 10.449219 5.796875 10.542969 5.890625 10.65625 5.890625 Z M 10.65625 5.890625 " fill-opacity="1" fill-rule="nonzero"/><path fill="#ffffff" d="M 10.25 17.742188 C 10.132812 17.75 10.046875 17.851562 10.058594 17.96875 C 10.222656 20.023438 10.585938 22.113281 11.136719 24.167969 C 11.164062 24.261719 11.246094 24.324219 11.339844 24.324219 C 11.359375 24.324219 11.375 24.320312 11.394531 24.316406 C 11.503906 24.285156 11.570312 24.171875 11.542969 24.0625 C 10.996094 22.027344 10.636719 19.964844 10.472656 17.933594 C 10.464844 17.820312 10.363281 17.734375 10.25 17.742188 Z M 10.25 17.742188 " fill-opacity="1" fill-rule="nonzero"/><path fill="#ffffff" d="M 8 20.679688 C 8.011719 20.683594 8.019531 20.683594 8.03125 20.683594 C 8.132812 20.683594 8.222656 20.605469 8.238281 20.503906 C 8.5 18.644531 8.710938 16.222656 8.890625 13.089844 C 8.894531 12.976562 8.808594 12.875 8.691406 12.871094 C 8.578125 12.863281 8.480469 12.953125 8.472656 13.066406 C 8.296875 16.183594 8.085938 18.597656 7.824219 20.445312 C 7.808594 20.558594 7.886719 20.664062 8 20.679688 Z M 8 20.679688 " fill-opacity="1" fill-rule="nonzero"/><path fill="#ffffff" d="M 22.09375 10.882812 C 22.191406 11.050781 22.367188 11.152344 22.5625 11.152344 C 22.757812 11.152344 22.933594 11.050781 23.03125 10.882812 L 24.78125 7.847656 C 24.851562 7.726562 24.851562 7.582031 24.78125 7.464844 C 24.710938 7.34375 24.585938 7.269531 24.449219 7.269531 L 23.847656 7.269531 L 23.847656 2.640625 C 23.847656 2.371094 23.628906 2.152344 23.359375 2.152344 L 21.765625 2.152344 C 21.496094 2.152344 21.277344 2.371094 21.277344 2.640625 L 21.277344 7.269531 L 20.675781 7.269531 C 20.535156 7.269531 20.410156 7.34375 20.34375 7.464844 C 20.273438 7.582031 20.273438 7.726562 20.34375 7.847656 Z M 21.695312 2.640625 C 21.695312 2.601562 21.726562 2.570312 21.765625 2.570312 L 23.359375 2.570312 C 23.398438 2.570312 23.429688 2.601562 23.429688 2.640625 L 23.429688 3.996094 C 23.378906 3.96875 23.324219 3.957031 23.261719 3.957031 C 22.582031 3.957031 21.992188 4.335938 21.695312 4.894531 Z M 21.695312 2.640625 " fill-opacity="1" fill-rule="nonzero"/><path fill="#ffffff" d="M 8.191406 27.289062 C 8.308594 27.289062 8.402344 27.195312 8.402344 27.082031 C 8.402344 26.964844 8.308594 26.871094 8.191406 26.871094 L 3.6875 26.871094 C 3.570312 26.871094 3.480469 26.964844 3.480469 27.082031 C 3.480469 27.195312 3.570312 27.289062 3.6875 27.289062 Z M 8.191406 27.289062 " fill-opacity="1" fill-rule="nonzero"/><path fill="#ffffff" d="M 15.824219 27.886719 C 15.9375 27.886719 16.03125 27.792969 16.03125 27.675781 C 16.03125 27.5625 15.9375 27.46875 15.824219 27.46875 L 11.542969 27.46875 C 11.425781 27.46875 11.335938 27.5625 11.335938 27.675781 C 11.335938 27.792969 11.425781 27.886719 11.542969 27.886719 Z M 15.824219 27.886719 " fill-opacity="1" fill-rule="nonzero"/></svg>