<svg xmlns="http://www.w3.org/2000/svg" xmlns:xlink="http://www.w3.org/1999/xlink" width="40" zoomAndPan="magnify" viewBox="0 0 30 30.000001" height="40" preserveAspectRatio="xMidYMid meet" version="1.0"><defs><clipPath id="6b3237080b"><path d="M 3.882812 0.394531 L 26 0.394531 L 26 28.699219 L 3.882812 28.699219 Z M 3.882812 0.394531 " clip-rule="nonzero"/></clipPath></defs><g clip-path="url(#6b3237080b)"><path fill="#ffffff" d="M 22.9375 17.96875 C 24.164062 16.792969 24.988281 15.457031 25.382812 14 C 26.109375 11.332031 25.414062 8.109375 23.523438 5.382812 C 21.640625 2.667969 18.941406 0.960938 16.113281 0.695312 C 13.011719 0.410156 8.855469 1.730469 7.054688 5.316406 C 6.175781 7.070312 6.15625 8.835938 6.292969 10.003906 C 6.429688 11.148438 6.03125 12.28125 5.230469 13.03125 L 5.191406 13.070312 C 4.953125 13.289062 4.746094 13.445312 4.5625 13.585938 C 4.207031 13.859375 3.949219 14.058594 3.925781 14.402344 C 3.890625 14.976562 4.582031 15.53125 6.085938 16.136719 C 5.71875 16.453125 5.5625 16.753906 5.601562 17.050781 C 5.652344 17.441406 6.019531 17.652344 6.347656 17.835938 C 6.542969 17.953125 6.792969 18.09375 6.792969 18.207031 C 6.792969 18.289062 6.660156 18.390625 6.527344 18.488281 C 6.328125 18.644531 6.078125 18.835938 6.078125 19.152344 C 6.074219 19.453125 6.300781 19.726562 6.765625 19.980469 C 6.648438 20.5625 6.578125 21.15625 6.554688 21.746094 C 6.507812 22.855469 6.484375 23.414062 6.855469 23.804688 C 7.152344 24.117188 7.574219 24.230469 9.417969 24.109375 C 10.171875 24.0625 10.929688 23.988281 11.675781 23.890625 C 12.058594 24.578125 12.347656 25.308594 12.53125 26.070312 C 12.714844 26.828125 12.792969 27.605469 12.765625 28.378906 C 12.761719 28.441406 12.785156 28.5 12.828125 28.542969 C 12.867188 28.585938 12.925781 28.609375 12.988281 28.609375 L 24.691406 28.609375 C 24.773438 28.609375 24.847656 28.566406 24.886719 28.496094 C 24.925781 28.429688 24.921875 28.34375 24.882812 28.273438 L 22.488281 24.238281 C 22.078125 23.621094 21.585938 22.609375 21.570312 21.28125 C 21.566406 20.972656 21.585938 20.664062 21.636719 20.363281 C 21.773438 19.480469 22.222656 18.652344 22.9375 17.96875 Z M 21.195312 20.292969 C 21.144531 20.621094 21.121094 20.953125 21.125 21.285156 C 21.324219 25.21875 16.5 25.417969 13.214844 28.167969 C 13.222656 27.425781 13.136719 26.6875 12.964844 25.96875 C 12.757812 25.117188 12.429688 24.300781 11.984375 23.539062 C 11.9375 23.460938 11.855469 23.421875 11.761719 23.433594 C 10.980469 23.535156 10.183594 23.617188 9.390625 23.667969 C 7.601562 23.785156 7.328125 23.660156 7.175781 23.5 C 6.933594 23.246094 6.957031 22.75 6.996094 21.765625 C 7.023438 21.144531 7.101562 20.519531 7.230469 19.910156 C 7.253906 19.808594 7.203125 19.710938 7.113281 19.664062 C 6.5625 19.390625 6.519531 19.203125 6.519531 19.152344 C 6.519531 19.054688 6.660156 18.945312 6.796875 18.839844 C 6.992188 18.691406 7.238281 18.507812 7.238281 18.203125 C 7.234375 17.835938 6.878906 17.632812 6.566406 17.453125 C 6.320312 17.3125 6.0625 17.164062 6.039062 16.992188 C 6.027344 16.886719 6.089844 16.648438 6.664062 16.257812 C 6.730469 16.210938 6.765625 16.128906 6.757812 16.046875 C 6.746094 15.964844 6.691406 15.894531 6.613281 15.867188 C 4.554688 15.09375 4.359375 14.605469 4.371094 14.429688 C 4.378906 14.292969 4.527344 14.175781 4.832031 13.9375 C 5.015625 13.800781 5.242188 13.628906 5.492188 13.394531 L 5.535156 13.355469 C 6.4375 12.507812 6.886719 11.238281 6.734375 9.953125 C 6.601562 8.84375 6.621094 7.171875 7.453125 5.515625 C 9.160156 2.113281 13.117188 0.863281 16.070312 1.136719 C 18.769531 1.390625 21.351562 3.03125 23.160156 5.636719 C 24.976562 8.257812 25.648438 11.339844 24.957031 13.882812 C 24.582031 15.261719 23.800781 16.527344 22.628906 17.648438 C 21.847656 18.402344 21.351562 19.316406 21.195312 20.292969 Z M 21.195312 20.292969 " fill-opacity="1" fill-rule="nonzero"/></g><path fill="#ffffff" d="M 21.445312 15.023438 C 21.855469 14.527344 23.847656 11.867188 22.996094 8.371094 C 22.867188 7.832031 22.078125 5.074219 19.339844 3.570312 C 17.113281 2.347656 13.773438 2.015625 11.328125 4.035156 C 9.628906 5.4375 8.289062 8.109375 9.117188 10.921875 C 9.910156 13.597656 12.332031 15.488281 15.015625 15.519531 C 15.039062 15.519531 15.0625 15.523438 15.089844 15.523438 C 16.785156 15.523438 18.574219 14.78125 19.777344 13.578125 C 20.746094 12.609375 21.246094 11.4375 21.226562 10.195312 C 21.1875 7.53125 18.808594 5.148438 16.128906 5.09375 C 14.003906 5.058594 11.601562 6.355469 11.25 8.609375 C 11.0625 9.789062 11.460938 11.039062 12.339844 12.039062 C 13.183594 13 14.351562 13.550781 15.464844 13.523438 C 16.960938 13.484375 18.445312 12.398438 18.996094 10.941406 C 19.125 10.59375 19.527344 9.539062 18.984375 8.539062 C 18.390625 7.449219 16.945312 6.894531 15.824219 7.328125 C 15.238281 7.558594 14.265625 8.234375 14.351562 9.328125 C 14.417969 10.164062 15.085938 10.882812 15.972656 11.074219 C 16.09375 11.101562 16.210938 11.027344 16.238281 10.90625 C 16.261719 10.785156 16.1875 10.667969 16.066406 10.640625 C 15.367188 10.488281 14.84375 9.933594 14.792969 9.292969 C 14.726562 8.457031 15.542969 7.914062 15.984375 7.742188 C 16.90625 7.382812 18.101562 7.84375 18.59375 8.75 C 19.039062 9.570312 18.707031 10.453125 18.582031 10.785156 C 18.09375 12.082031 16.777344 13.046875 15.453125 13.082031 C 14.476562 13.109375 13.433594 12.609375 12.675781 11.746094 C 11.882812 10.84375 11.523438 9.726562 11.6875 8.679688 C 11.992188 6.722656 14.160156 5.539062 16.03125 5.539062 C 16.0625 5.539062 16.09375 5.539062 16.121094 5.539062 C 18.570312 5.589844 20.75 7.765625 20.785156 10.199219 C 20.800781 11.320312 20.34375 12.382812 19.460938 13.265625 C 18.324219 14.40625 16.632812 15.09375 15.019531 15.078125 C 12.53125 15.046875 10.28125 13.285156 9.542969 10.796875 C 8.769531 8.175781 10.023438 5.6875 11.609375 4.378906 C 13.898438 2.492188 17.03125 2.808594 19.125 3.957031 C 21.699219 5.375 22.441406 7.96875 22.566406 8.476562 C 23.382812 11.835938 21.339844 14.457031 21.105469 14.742188 C 21.027344 14.839844 21.039062 14.976562 21.136719 15.054688 C 21.230469 15.132812 21.371094 15.121094 21.445312 15.023438 Z M 21.445312 15.023438 " fill-opacity="1" fill-rule="nonzero"/></svg>