<svg xmlns="http://www.w3.org/2000/svg" xmlns:xlink="http://www.w3.org/1999/xlink" width="1080" zoomAndPan="magnify" viewBox="0 0 810 809.999993" height="1080" preserveAspectRatio="xMidYMid meet" version="1.0"><path fill="#ffffff" d="M 237.355469 620.703125 C 237.742188 613.269531 239.792969 606.992188 241.585938 600.710938 C 246.199219 583.023438 252.992188 566.105469 256.835938 548.289062 C 260.171875 533.292969 265.296875 519.066406 270.039062 504.585938 C 272.988281 495.742188 274.910156 486.511719 277.34375 477.414062 C 277.984375 475.363281 277.601562 473.824219 275.804688 472.800781 C 266.195312 466.902344 259.273438 458.058594 251.199219 450.496094 C 239.792969 439.730469 227.742188 429.734375 215.441406 420.121094 C 203.648438 410.894531 192.625 400.898438 181.21875 391.15625 C 171.992188 383.082031 162.890625 374.878906 154.558594 365.777344 C 151.355469 362.320312 148.152344 358.859375 146.355469 354.371094 C 145.589844 352.578125 144.050781 351.296875 142.769531 349.886719 C 137.386719 344.117188 136.488281 335.53125 140.460938 329.890625 C 141.742188 328.097656 143.539062 326.945312 145.332031 325.917969 C 150.203125 323.355469 155.457031 321.816406 160.96875 321.816406 C 162.632812 321.816406 164.171875 321.6875 165.710938 321.175781 C 174.9375 318.230469 184.292969 317.332031 194.035156 317.203125 C 207.363281 316.945312 220.695312 316.820312 234.023438 316.820312 C 242.355469 316.820312 250.6875 316.5625 259.015625 316.945312 C 274.398438 317.460938 289.648438 318.101562 305.027344 318.871094 C 310.410156 319.125 315.796875 320.152344 321.179688 321.046875 C 322.460938 321.175781 323.230469 321.046875 323.613281 319.765625 C 326.945312 309.898438 332.457031 301.054688 336.816406 291.699219 C 342.070312 280.546875 346.941406 269.140625 351.167969 257.476562 C 359.628906 234.40625 368.984375 211.847656 379.367188 189.546875 C 382.058594 183.652344 385.261719 178.011719 388.339844 172.246094 C 396.027344 157.632812 409.101562 159.8125 417.945312 168.273438 C 423.457031 173.65625 427.171875 180.0625 429.992188 187.242188 C 439.988281 212.105469 451.78125 236.203125 462.164062 260.808594 C 470.109375 279.648438 477.160156 298.875 484.59375 317.972656 C 485.488281 320.40625 486.644531 321.5625 489.589844 321.945312 C 500.230469 323.226562 510.867188 325.148438 521.503906 326.6875 C 527.398438 327.457031 533.425781 327.839844 539.320312 328.226562 C 549.957031 328.738281 560.59375 328.996094 571.234375 329.636719 C 582.898438 330.40625 594.558594 331.6875 606.222656 332.582031 C 610.195312 332.839844 614.167969 333.609375 618.269531 333.097656 C 623.398438 332.457031 628.140625 334.507812 633.011719 335.53125 C 641.726562 337.324219 650.570312 338.992188 659.15625 341.8125 C 664.027344 343.476562 668 346.296875 670.433594 351.167969 C 673.511719 357.0625 673 362.832031 668.511719 367.828125 C 663 373.980469 656.464844 378.980469 649.671875 383.59375 C 624.808594 400.640625 597.378906 413.199219 571.105469 427.941406 C 561.75 433.195312 552.394531 438.707031 543.035156 443.960938 C 540.984375 445.113281 540.34375 446.140625 541.242188 448.449219 C 547.90625 465.238281 550.34375 483.050781 552.648438 500.738281 C 555.46875 523.296875 558.289062 545.984375 560.722656 568.667969 C 562.390625 583.28125 564.183594 597.890625 563.285156 612.628906 C 562.902344 619.167969 563.929688 625.574219 564.695312 631.984375 C 565.722656 640.441406 563.160156 646.59375 557.136719 649.414062 C 553.929688 650.824219 550.726562 650.695312 547.394531 649.925781 C 538.039062 647.875 530.347656 643.132812 522.914062 637.238281 C 513.6875 629.933594 506.253906 620.703125 497.410156 613.015625 C 475.109375 593.277344 453.574219 572.640625 432.683594 551.367188 C 431.273438 549.957031 429.992188 549.570312 428.199219 550.339844 C 424.226562 552.136719 420.25 553.800781 416.40625 556.109375 C 404.871094 563.03125 393.722656 570.464844 381.671875 576.359375 C 364.371094 584.945312 348.222656 595.582031 332.070312 606.222656 C 312.847656 618.78125 293.238281 630.703125 272.988281 641.46875 C 268.117188 644.03125 263.117188 646.464844 257.863281 648.390625 C 247.351562 652.363281 239.023438 647.363281 237.996094 636.214844 C 237.867188 630.703125 238.253906 625.320312 237.355469 620.703125 Z M 237.355469 620.703125 " fill-opacity="1" fill-rule="nonzero"/></svg>